<svg xmlns="http://www.w3.org/2000/svg" xmlns:xlink="http://www.w3.org/1999/xlink" width="500" zoomAndPan="magnify" viewBox="0 0 375 374.999991" height="500" preserveAspectRatio="xMidYMid meet" version="1.0"><defs><filter x="0%" y="0%" width="100%" height="100%" id="1558570fd9"><feColorMatrix values="0 0 0 0 1 0 0 0 0 1 0 0 0 0 1 0 0 0 1 0" color-interpolation-filters="sRGB"/></filter><g/><clipPath id="ef352a0693"><path d="M 79.359375 159 L 124 159 L 124 204.503906 L 79.359375 204.503906 Z M 79.359375 159 " clip-rule="nonzero"/></clipPath><clipPath id="d93ad10df5"><path d="M 101.777344 169.765625 C 101.789062 169.765625 101.800781 169.765625 101.8125 169.765625 C 108.679688 169.785156 113.871094 175.601562 113.699219 181.992188 C 113.523438 188.445312 108.273438 193.597656 101.660156 193.597656 C 101.628906 193.597656 101.597656 193.597656 101.5625 193.597656 C 95.015625 193.546875 89.839844 188.214844 89.890625 181.566406 C 89.941406 174.988281 95.222656 169.761719 101.777344 169.761719 Z M 100.222656 159.027344 C 99.054688 159.070312 98.550781 159.597656 98.503906 160.757812 L 98.480469 162.734375 C 98.421875 164.003906 96.367188 165.289062 94.878906 165.289062 C 94.511719 165.289062 94.179688 165.210938 93.917969 165.035156 C 93.667969 164.871094 93.476562 164.605469 93.292969 164.367188 L 92.113281 162.785156 C 91.730469 162.289062 91.300781 162.019531 90.824219 162.019531 C 90.503906 162.019531 90.160156 162.144531 89.796875 162.402344 L 87.175781 164.320312 C 86.296875 164.996094 86.183594 165.808594 86.808594 166.746094 C 87.171875 167.292969 87.703125 167.761719 87.9375 168.351562 C 88.171875 168.945312 88.433594 169.851562 88.15625 170.257812 C 87.46875 171.257812 87.085938 172.683594 85.570312 172.859375 C 85.539062 172.867188 85.507812 172.867188 85.476562 172.867188 C 85.214844 172.867188 84.933594 172.746094 84.671875 172.660156 L 82.800781 172.054688 C 82.59375 172 82.398438 171.972656 82.210938 171.972656 C 81.542969 171.972656 81.023438 172.316406 80.753906 173.074219 L 79.738281 176.273438 C 79.460938 177.273438 79.78125 178.023438 80.824219 178.367188 L 82.910156 179.066406 C 83.695312 179.332031 84.070312 179.878906 84.121094 180.714844 C 84.296875 183.75 84.210938 183.898438 81.207031 184.886719 L 80.914062 184.992188 C 79.816406 185.386719 79.4375 185.992188 79.734375 187.132812 C 80.011719 188.214844 80.359375 189.285156 80.742188 190.335938 C 81.011719 191.070312 81.527344 191.4375 82.203125 191.4375 C 82.417969 191.4375 82.648438 191.398438 82.890625 191.328125 C 83.589844 191.117188 84.285156 190.75 84.992188 190.71875 C 85.035156 190.714844 85.078125 190.714844 85.125 190.714844 C 85.726562 190.714844 86.519531 190.875 86.808594 191.265625 C 88.574219 193.636719 89.203125 193.519531 86.976562 196.414062 L 86.789062 196.664062 C 86.1875 197.589844 86.285156 198.410156 87.164062 199.101562 L 89.789062 201.011719 C 90.148438 201.246094 90.5 201.367188 90.832031 201.367188 C 91.304688 201.367188 91.742188 201.128906 92.125 200.617188 C 92.585938 199.996094 92.972656 199.289062 93.542969 198.792969 C 93.890625 198.488281 94.488281 198.167969 94.921875 198.167969 C 94.996094 198.167969 95.066406 198.175781 95.132812 198.195312 C 97.964844 199.144531 98.605469 198.460938 98.472656 202.324219 L 98.476562 202.554688 C 98.53125 203.847656 99.023438 204.34375 100.347656 204.382812 L 102.898438 204.394531 C 104.644531 204.375 105.074219 203.933594 105.089844 202.171875 C 105.117188 199.15625 105.117188 199.15625 108.03125 198.25 L 108.105469 198.230469 C 108.339844 198.144531 108.5625 198.105469 108.769531 198.105469 C 109.308594 198.105469 109.765625 198.382812 110.140625 198.882812 L 111.4375 200.664062 C 111.8125 201.132812 112.25 201.375 112.71875 201.375 C 113.035156 201.375 113.363281 201.265625 113.695312 201.050781 C 114.667969 200.417969 115.597656 199.726562 116.503906 199 C 117.289062 198.371094 117.367188 197.578125 116.796875 196.742188 L 115.578125 195.046875 C 115 194.261719 115.023438 193.523438 115.605469 192.714844 C 116.675781 191.222656 117.082031 190.640625 117.941406 190.640625 C 118.480469 190.640625 119.199219 190.871094 120.371094 191.25 L 120.667969 191.332031 C 120.921875 191.425781 121.152344 191.464844 121.363281 191.464844 C 122.027344 191.464844 122.488281 191.046875 122.789062 190.320312 L 123.277344 188.894531 C 124.230469 186.042969 124.570312 185.460938 121.089844 184.457031 C 120.519531 184.296875 119.84375 183.847656 119.59375 183.34375 C 118.625 181.367188 119.546875 179.410156 121.628906 178.738281 C 124.113281 177.941406 124.269531 177.632812 123.429688 175.0625 L 123.367188 174.839844 C 122.714844 172.753906 122.457031 171.996094 121.484375 171.996094 C 120.941406 171.996094 120.167969 172.238281 118.976562 172.613281 C 118.671875 172.710938 118.3125 172.78125 117.976562 172.78125 C 117.734375 172.78125 117.507812 172.746094 117.316406 172.660156 C 115.40625 171.792969 114.832031 169.363281 116.039062 167.691406 L 117.328125 165.726562 C 117.035156 165.234375 116.886719 164.757812 116.566406 164.492188 C 115.609375 163.714844 114.601562 162.992188 113.578125 162.292969 C 113.285156 162.09375 113 162.003906 112.730469 162.003906 C 112.285156 162.003906 111.871094 162.246094 111.523438 162.664062 L 110.21875 164.433594 C 109.8125 165.015625 109.324219 165.28125 108.738281 165.28125 C 108.507812 165.28125 108.257812 165.242188 107.992188 165.160156 C 105.101562 164.277344 105.097656 164.289062 105.074219 161.097656 L 105.070312 160.789062 C 105.015625 159.648438 104.492188 159.078125 103.359375 159.027344 Z M 100.222656 159.027344 " clip-rule="nonzero"/></clipPath><clipPath id="b670f7e5b1"><path d="M 33.628906 173.445312 L 106 173.445312 L 106 221.421875 L 33.628906 221.421875 Z M 33.628906 173.445312 " clip-rule="nonzero"/></clipPath><clipPath id="f5f8bb4814"><path d="M 101.839844 206.9375 C 103.179688 206.730469 104.382812 206.542969 105.636719 206.347656 C 105.636719 209.433594 105.914062 212.65625 105.5625 215.804688 C 105.1875 219.164062 102.386719 221.195312 98.914062 221.195312 L 59.550781 221.203125 C 53.242188 221.203125 46.929688 221.128906 40.625 221.226562 C 36.855469 221.289062 33.65625 218.230469 33.699219 214.289062 C 33.828125 203.0625 33.824219 191.835938 33.699219 180.609375 C 33.65625 176.820312 36.5625 173.605469 40.695312 173.628906 C 52.808594 173.695312 64.921875 173.65625 77.039062 173.65625 C 77.304688 173.65625 77.574219 173.65625 77.929688 173.65625 C 77.632812 174.957031 77.355469 176.175781 77.046875 177.523438 L 75.832031 177.523438 C 64.335938 177.523438 52.839844 177.523438 41.347656 177.523438 C 38.78125 177.523438 37.648438 178.628906 37.648438 181.15625 L 37.648438 213.675781 C 37.648438 216.28125 38.6875 217.316406 41.316406 217.316406 L 98.210938 217.316406 C 100.664062 217.316406 101.839844 216.152344 101.84375 213.714844 L 101.84375 206.941406 " clip-rule="nonzero"/></clipPath><clipPath id="26b8255926"><path d="M 30.148438 225.59375 L 109.300781 225.59375 L 109.300781 231 L 30.148438 231 Z M 30.148438 225.59375 " clip-rule="nonzero"/></clipPath><clipPath id="b515a6022c"><path d="M 109.035156 225.730469 C 109.085938 228.5 106.976562 230.796875 104.125 230.859375 C 95.816406 231.042969 87.503906 230.921875 79.207031 230.921875 C 78.476562 228.226562 77.964844 227.832031 75.167969 227.824219 L 63.796875 227.820312 C 61.507812 227.824219 60.660156 228.582031 60.332031 230.886719 L 59.449219 230.96875 C 51.789062 230.96875 44.132812 230.996094 36.472656 230.933594 C 35.390625 230.925781 34.238281 230.648438 33.242188 230.21875 C 31.386719 229.414062 30.476562 227.851562 30.316406 225.734375 Z M 109.035156 225.730469 " clip-rule="nonzero"/></clipPath><clipPath id="66e13cffb3"><path d="M 23.417969 149.804688 L 85.855469 149.804688 L 85.855469 195.925781 L 23.417969 195.925781 Z M 23.417969 149.804688 " clip-rule="nonzero"/></clipPath><clipPath id="4f5735e531"><path d="M 46.058594 149.808594 C 45.066406 149.808594 44.066406 149.847656 43.054688 149.933594 C 38.148438 150.335938 33.6875 151.914062 30.054688 155.367188 C 24.925781 160.234375 23.488281 166.484375 23.664062 173.242188 C 23.796875 178.5 25.03125 183.570312 26.878906 188.476562 C 27.796875 190.914062 28.882812 193.292969 29.890625 195.699219 L 30.007812 195.660156 L 30.253906 195.585938 C 30.253906 193.730469 30.308594 191.871094 30.230469 190.019531 C 30.191406 189.15625 30.019531 188.257812 29.699219 187.464844 C 27.003906 180.773438 25.035156 173.980469 25.808594 166.621094 C 26.636719 158.71875 32.269531 152.941406 40.167969 151.96875 C 41.390625 151.816406 42.597656 151.75 43.796875 151.75 C 47.773438 151.75 51.652344 152.519531 55.476562 153.710938 C 64.328125 156.472656 72.199219 161.09375 79.566406 166.625 C 81.21875 167.863281 82.824219 169.167969 84.511719 170.496094 C 84.972656 169.859375 85.351562 169.335938 85.707031 168.84375 L 83.820312 165.730469 C 83.503906 165.230469 83.214844 164.65625 82.761719 164.316406 C 78.167969 160.882812 73.320312 157.859375 68.113281 155.4375 C 61.113281 152.179688 53.90625 149.820312 46.199219 149.808594 Z M 46.058594 149.808594 " clip-rule="nonzero"/></clipPath><clipPath id="61b909377b"><path d="M 65.199219 203.34375 L 119 203.34375 L 119 245.292969 L 65.199219 245.292969 Z M 65.199219 203.34375 " clip-rule="nonzero"/></clipPath><clipPath id="5e4930ec12"><path d="M 110.875 203.542969 C 110.875 203.542969 110.875 203.542969 110.871094 203.546875 C 110.871094 203.542969 110.875 203.542969 110.875 203.542969 Z M 110.871094 203.546875 C 110.867188 203.558594 110.847656 203.59375 110.792969 203.691406 C 110.84375 203.703125 110.890625 203.714844 110.941406 203.722656 L 110.871094 203.5625 C 110.871094 203.558594 110.871094 203.550781 110.871094 203.546875 Z M 110.941406 203.722656 L 112.554688 207.5 C 115.199219 214.011719 116.992188 220.660156 116.222656 227.808594 C 115.507812 234.484375 111.414062 239.652344 105.019531 241.636719 C 102.8125 242.320312 100.585938 242.601562 98.351562 242.601562 C 96.332031 242.601562 94.304688 242.371094 92.273438 242.011719 C 85.8125 240.859375 79.757812 238.496094 74.140625 235.191406 C 72.597656 234.28125 71.054688 234.097656 69.503906 234.097656 C 68.417969 234.097656 67.324219 234.191406 66.226562 234.191406 C 65.914062 234.191406 65.597656 234.183594 65.28125 234.164062 C 65.671875 234.585938 66.09375 234.902344 66.554688 235.144531 C 69.652344 236.800781 72.683594 238.609375 75.882812 240.054688 C 82.523438 243.054688 89.378906 245.0625 96.664062 245.0625 C 97.738281 245.0625 98.820312 245.019531 99.914062 244.929688 C 110.257812 244.070312 117.902344 236.425781 118.777344 226.085938 C 119.226562 220.746094 118.484375 215.59375 117.058594 210.503906 C 116.457031 208.363281 115.640625 206.285156 115.042969 204.542969 C 113.480469 204.230469 112.246094 203.984375 110.941406 203.726562 Z M 110.941406 203.722656 " clip-rule="nonzero"/></clipPath><clipPath id="c296b43e3a"><path d="M 60.09375 191.753906 L 79 191.753906 L 79 210.757812 L 60.09375 210.757812 Z M 60.09375 191.753906 " clip-rule="nonzero"/></clipPath><clipPath id="b27aa1f4ed"><path d="M 74.65625 201.28125 C 74.664062 198.511719 72.523438 196.332031 69.777344 196.308594 C 66.984375 196.285156 64.734375 198.503906 64.738281 201.28125 C 64.742188 203.980469 66.964844 206.179688 69.722656 206.210938 C 72.445312 206.238281 74.648438 204.039062 74.660156 201.28125 M 61.824219 197.355469 C 62.3125 197.394531 62.847656 197.582031 63.277344 197.445312 C 64.054688 197.203125 64.28125 196.121094 63.71875 195.367188 C 63.078125 194.503906 63.546875 194.082031 64.214844 193.601562 C 64.859375 193.132812 65.429688 192.847656 65.941406 193.714844 C 66.308594 194.34375 66.769531 194.523438 67.488281 194.292969 C 68.230469 194.058594 68.433594 193.589844 68.371094 192.890625 C 68.269531 191.816406 69.015625 191.855469 69.742188 191.847656 C 70.496094 191.835938 71.195312 191.875 71.109375 192.917969 C 71.050781 193.609375 71.230469 194.078125 71.992188 194.308594 C 72.738281 194.535156 73.171875 194.273438 73.53125 193.683594 C 74.082031 192.785156 74.65625 193.210938 75.261719 193.636719 C 75.890625 194.078125 76.394531 194.519531 75.730469 195.304688 C 75.277344 195.839844 75.1875 196.335938 75.648438 196.960938 C 76.109375 197.589844 76.582031 197.648438 77.246094 197.375 C 78.164062 196.996094 78.464844 197.597656 78.699219 198.335938 C 78.925781 199.058594 79.101562 199.722656 78.113281 199.980469 C 77.445312 200.152344 77.050781 200.453125 77.0625 201.253906 C 77.074219 202.03125 77.421875 202.371094 78.105469 202.542969 C 79.199219 202.816406 78.882812 203.527344 78.667969 204.269531 C 78.433594 205.09375 78.027344 205.515625 77.171875 205.136719 C 76.542969 204.859375 76.109375 204.9375 75.683594 205.519531 C 75.242188 206.125 75.238281 206.628906 75.71875 207.179688 C 76.367188 207.921875 75.996094 208.398438 75.316406 208.859375 C 74.664062 209.300781 74.058594 209.75 73.492188 208.804688 C 73.109375 208.164062 72.617188 208.015625 71.921875 208.238281 C 71.234375 208.460938 71.070312 208.933594 71.125 209.582031 C 71.214844 210.675781 70.476562 210.710938 69.679688 210.710938 C 68.90625 210.710938 68.246094 210.628906 68.359375 209.597656 C 68.429688 208.945312 68.238281 208.472656 67.550781 208.265625 C 66.886719 208.066406 66.359375 208.09375 65.976562 208.78125 C 65.453125 209.714844 64.84375 209.398438 64.167969 208.902344 C 63.480469 208.402344 63.039062 207.914062 63.742188 207.132812 C 64.199219 206.628906 64.257812 206.179688 63.820312 205.597656 C 63.378906 205.007812 62.957031 204.808594 62.253906 205.140625 C 61.492188 205.496094 61.03125 205.195312 60.824219 204.363281 C 60.640625 203.628906 60.117188 202.863281 61.339844 202.542969 C 61.996094 202.371094 62.382812 202.046875 62.382812 201.253906 C 62.382812 200.464844 62.007812 200.175781 61.339844 199.976562 C 60.804688 199.816406 60.277344 199.539062 60.632812 198.816406 C 60.921875 198.226562 60.71875 197.230469 61.828125 197.351562 " clip-rule="nonzero"/></clipPath><clipPath id="a60b008781"><path d="M 44.308594 183 L 57 183 L 57 195.695312 L 44.308594 195.695312 Z M 44.308594 183 " clip-rule="nonzero"/></clipPath><clipPath id="974f378adf"><path d="M 47.417969 189.304688 C 47.402344 191.140625 48.859375 192.632812 50.675781 192.648438 C 52.503906 192.660156 53.984375 191.199219 53.996094 189.363281 C 54.007812 187.527344 52.558594 186.039062 50.738281 186.011719 C 48.929688 185.988281 47.433594 187.472656 47.417969 189.304688 M 46.769531 194.359375 L 45.757812 193.203125 C 45.914062 192.976562 46.089844 192.808594 46.152344 192.609375 C 46.253906 192.277344 46.433594 191.859375 46.316406 191.601562 C 46.199219 191.347656 45.726562 191.070312 45.453125 191.109375 C 44.710938 191.210938 44.503906 190.75 44.539062 190.25 C 44.5625 189.917969 44.882812 189.480469 45.191406 189.316406 C 46.003906 188.878906 46.089844 188.300781 45.441406 187.640625 C 45.199219 187.394531 45.050781 186.886719 45.117188 186.546875 C 45.222656 185.988281 45.609375 185.796875 46.253906 186.015625 C 47.222656 186.335938 47.59375 185.84375 47.417969 184.796875 C 47.363281 184.488281 47.632812 183.9375 47.902344 183.808594 C 48.179688 183.679688 48.769531 183.804688 48.996094 184.039062 C 49.71875 184.777344 50.417969 184.753906 50.664062 183.78125 C 50.851562 183.042969 51.316406 183.015625 51.769531 183.199219 C 52.082031 183.328125 52.402344 183.769531 52.453125 184.113281 C 52.597656 185.046875 53.164062 185.402344 53.917969 184.820312 C 54.457031 184.402344 54.871094 184.445312 55.152344 184.960938 C 55.316406 185.265625 55.363281 185.792969 55.207031 186.085938 C 54.761719 186.933594 54.980469 187.550781 55.921875 187.542969 C 56.574219 187.542969 56.816406 187.78125 56.917969 188.375 C 57.027344 189 56.800781 189.246094 56.183594 189.417969 C 55.390625 189.636719 55.265625 190.507812 55.972656 190.964844 C 56.523438 191.328125 56.609375 191.628906 56.308594 192.183594 C 56.023438 192.703125 55.761719 192.90625 55.128906 192.648438 C 54.316406 192.316406 53.710938 192.875 54.003906 193.691406 C 54.25 194.363281 54.085938 194.667969 53.507812 194.972656 C 52.914062 195.289062 52.648438 195.082031 52.3125 194.566406 C 51.859375 193.875 51.132812 194.074219 50.734375 194.839844 C 50.574219 195.144531 50.167969 195.488281 49.851562 195.511719 C 49.296875 195.554688 48.792969 195.355469 48.933594 194.546875 C 48.972656 194.300781 48.726562 193.839844 48.5 193.753906 C 48.21875 193.644531 47.816406 193.78125 47.488281 193.878906 C 47.285156 193.941406 47.113281 194.121094 46.773438 194.355469 " clip-rule="nonzero"/></clipPath><clipPath id="be7bd9ddb9"><path d="M 94 174 L 109.53125 174 L 109.53125 189.4375 L 94 189.4375 Z M 94 174 " clip-rule="nonzero"/></clipPath><clipPath id="17d6288340"><path d="M 94.152344 181.609375 C 94.195312 177.359375 97.640625 174.015625 101.914062 174.074219 C 106.035156 174.125 109.507812 177.691406 109.429688 181.789062 C 109.355469 185.953125 105.867188 189.378906 101.742188 189.34375 C 97.511719 189.308594 94.105469 185.835938 94.152344 181.613281 " clip-rule="nonzero"/></clipPath><clipPath id="993fbc40f2"><path d="M 39.796875 182.027344 L 73.785156 182.027344 L 73.785156 212.9375 L 39.796875 212.9375 Z M 39.796875 182.027344 " clip-rule="nonzero"/></clipPath><clipPath id="19b8e420e4"><path d="M 46.257812 193.042969 L 80.246094 193.042969 L 80.246094 212.9375 L 46.257812 212.9375 Z M 46.257812 193.042969 " clip-rule="nonzero"/></clipPath><clipPath id="8e4a8ce7b0"><path d="M 74 214 L 83 214 L 83 217.335938 L 74 217.335938 Z M 74 214 " clip-rule="nonzero"/></clipPath><clipPath id="19d259f15d"><path d="M 79 214 L 83 214 L 83 217.335938 L 79 217.335938 Z M 79 214 " clip-rule="nonzero"/></clipPath><clipPath id="b2661a038b"><path d="M 55 205 L 77 205 L 77 217.335938 L 55 217.335938 Z M 55 205 " clip-rule="nonzero"/></clipPath><clipPath id="8ba1d8b947"><path d="M 68 205 L 77 205 L 77 217.335938 L 68 217.335938 Z M 68 205 " clip-rule="nonzero"/></clipPath><mask id="a1f050d779"><g filter="url(#1558570fd9)"><rect x="-37.5" width="450" fill="#000000" y="-37.499999" height="449.999989" fill-opacity="0.9872"/></g></mask><clipPath id="0c04590346"><path d="M 1 0.601562 L 4.839844 0.601562 L 4.839844 6.121094 L 1 6.121094 Z M 1 0.601562 " clip-rule="nonzero"/></clipPath><clipPath id="b3dbdba95e"><rect x="0" width="5" y="0" height="7"/></clipPath><mask id="417d05d729"><g filter="url(#1558570fd9)"><rect x="-37.5" width="450" fill="#000000" y="-37.499999" height="449.999989" fill-opacity="0.9872"/></g></mask><clipPath id="f16940cc87"><path d="M 1 0.398438 L 4.519531 0.398438 L 4.519531 6 L 1 6 Z M 1 0.398438 " clip-rule="nonzero"/></clipPath><clipPath id="355bb8488c"><rect x="0" width="5" y="0" height="7"/></clipPath><mask id="f2c9d22e41"><g filter="url(#1558570fd9)"><rect x="-37.5" width="450" fill="#000000" y="-37.499999" height="449.999989" fill-opacity="0.9872"/></g></mask><clipPath id="929730cb05"><path d="M 1 1 L 6.679688 1 L 6.679688 4.960938 L 1 4.960938 Z M 1 1 " clip-rule="nonzero"/></clipPath><clipPath id="bc05e90ec7"><rect x="0" width="7" y="0" height="5"/></clipPath><mask id="de41b1114d"><g filter="url(#1558570fd9)"><rect x="-37.5" width="450" fill="#000000" y="-37.499999" height="449.999989" fill-opacity="0.9872"/></g></mask><clipPath id="225f6a7195"><path d="M 0.839844 0.199219 L 6 0.199219 L 6 4.519531 L 0.839844 4.519531 Z M 0.839844 0.199219 " clip-rule="nonzero"/></clipPath><clipPath id="4dcb3be73a"><rect x="0" width="7" y="0" height="5"/></clipPath><clipPath id="53ca218cbd"><path d="M 94.398438 173.730469 L 108.171875 173.730469 L 108.171875 187.5 L 94.398438 187.5 Z M 94.398438 173.730469 " clip-rule="nonzero"/></clipPath><clipPath id="eb1856acdc"><path d="M 101.285156 173.730469 C 97.484375 173.730469 94.398438 176.8125 94.398438 180.613281 C 94.398438 184.417969 97.484375 187.5 101.285156 187.5 C 105.085938 187.5 108.171875 184.417969 108.171875 180.613281 C 108.171875 176.8125 105.085938 173.730469 101.285156 173.730469 Z M 101.285156 173.730469 " clip-rule="nonzero"/></clipPath></defs><rect x="-37.5" width="450" fill="#ffffff" y="-37.499999" height="449.999989" fill-opacity="1"/><rect x="-37.5" width="450" fill="#050214" y="-37.499999" height="449.999989" fill-opacity="1"/><g clip-path="url(#ef352a0693)"><g clip-path="url(#d93ad10df5)"><path fill="#02c1c2" d="M 22.488281 148.644531 L 125.085938 148.644531 L 125.085938 246.21875 L 22.488281 246.21875 Z M 22.488281 148.644531 " fill-opacity="1" fill-rule="nonzero"/></g></g><g clip-path="url(#b670f7e5b1)"><g clip-path="url(#f5f8bb4814)"><path fill="#35cdce" d="M 22.488281 148.644531 L 125.085938 148.644531 L 125.085938 246.21875 L 22.488281 246.21875 Z M 22.488281 148.644531 " fill-opacity="1" fill-rule="nonzero"/></g></g><g clip-path="url(#26b8255926)"><g clip-path="url(#b515a6022c)"><path fill="#35cdce" d="M 22.488281 148.644531 L 125.085938 148.644531 L 125.085938 246.21875 L 22.488281 246.21875 Z M 22.488281 148.644531 " fill-opacity="1" fill-rule="nonzero"/></g></g><g clip-path="url(#66e13cffb3)"><g clip-path="url(#4f5735e531)"><path fill="#35cdce" d="M 22.488281 148.644531 L 125.085938 148.644531 L 125.085938 246.21875 L 22.488281 246.21875 Z M 22.488281 148.644531 " fill-opacity="1" fill-rule="nonzero"/></g></g><g clip-path="url(#61b909377b)"><g clip-path="url(#5e4930ec12)"><path fill="#35cdce" d="M 22.488281 148.644531 L 125.085938 148.644531 L 125.085938 246.21875 L 22.488281 246.21875 Z M 22.488281 148.644531 " fill-opacity="1" fill-rule="nonzero"/></g></g><g clip-path="url(#c296b43e3a)"><g clip-path="url(#b27aa1f4ed)"><path fill="#ffffff" d="M 22.488281 148.644531 L 125.085938 148.644531 L 125.085938 246.21875 L 22.488281 246.21875 Z M 22.488281 148.644531 " fill-opacity="1" fill-rule="nonzero"/></g></g><g clip-path="url(#a60b008781)"><g clip-path="url(#974f378adf)"><path fill="#ffffff" d="M 22.488281 148.644531 L 125.085938 148.644531 L 125.085938 246.21875 L 22.488281 246.21875 Z M 22.488281 148.644531 " fill-opacity="1" fill-rule="nonzero"/></g></g><g clip-path="url(#be7bd9ddb9)"><g clip-path="url(#17d6288340)"><path fill="#ffffff" d="M 22.488281 148.644531 L 125.085938 148.644531 L 125.085938 246.21875 L 22.488281 246.21875 Z M 22.488281 148.644531 " fill-opacity="1" fill-rule="nonzero"/></g></g><g clip-path="url(#993fbc40f2)"><path fill="#050214" d="M 39.796875 182.027344 L 73.785156 182.027344 L 73.785156 212.9375 L 39.796875 212.9375 Z M 39.796875 182.027344 " fill-opacity="1" fill-rule="nonzero"/></g><g clip-path="url(#19b8e420e4)"><path fill="#050214" d="M 46.257812 193.042969 L 80.246094 193.042969 L 80.246094 212.9375 L 46.257812 212.9375 Z M 46.257812 193.042969 " fill-opacity="1" fill-rule="nonzero"/></g><path fill="#2a245e" d="M 79.746094 212.632812 C 80.277344 213.453125 80.546875 214.277344 80.550781 215.097656 C 80.550781 215.097656 75.695312 216.980469 75.695312 216.980469 C 75.210938 216.179688 75.269531 215.402344 76 214.660156 C 76 214.660156 79.746094 212.632812 79.746094 212.632812 Z M 79.746094 212.632812 " fill-opacity="1" fill-rule="nonzero"/><path fill="#02c1c2" d="M 80.328125 212.554688 C 80.34375 212.625 80.3125 212.699219 80.25 212.734375 C 80.25 212.734375 79.476562 213.195312 79.476562 213.195312 C 79.476562 213.195312 75.320312 215.652344 75.320312 215.652344 C 73.144531 211.527344 72.210938 207.648438 74.996094 206.21875 C 75.199219 206.117188 75.421875 206.027344 75.664062 205.949219 C 78.265625 206.101562 79.484375 208.964844 80.328125 212.554688 Z M 80.328125 212.554688 " fill-opacity="1" fill-rule="nonzero"/><path fill="#35cdce" d="M 80.246094 212.738281 C 80.246094 212.738281 79.476562 213.195312 79.476562 213.195312 C 78.8125 209.894531 77.433594 207.4375 74.996094 206.21875 C 75.199219 206.117188 75.417969 206.027344 75.664062 205.949219 C 78.265625 206.101562 79.480469 208.964844 80.328125 212.550781 C 80.34375 212.625 80.3125 212.699219 80.246094 212.738281 Z M 80.246094 212.738281 " fill-opacity="1" fill-rule="nonzero"/><g clip-path="url(#8e4a8ce7b0)"><path fill="#02c1c2" d="M 82.398438 222.917969 C 82.355469 223.195312 82.148438 223.414062 81.878906 223.480469 C 81.390625 223.601562 80.894531 223.6875 80.386719 223.738281 C 79.164062 223.867188 77.875 223.804688 76.53125 223.570312 C 76.429688 223.550781 76.335938 223.496094 76.273438 223.414062 C 74.929688 221.640625 74.171875 219.554688 75.160156 216.546875 C 75.34375 216.785156 77.574219 216.039062 79.164062 215.347656 C 79.882812 215.035156 80.46875 214.734375 80.675781 214.542969 C 80.726562 214.496094 80.8125 214.507812 80.847656 214.570312 C 82.542969 217.675781 82.792969 220.382812 82.398438 222.917969 Z M 82.398438 222.917969 " fill-opacity="1" fill-rule="nonzero"/></g><g clip-path="url(#19d259f15d)"><path fill="#35cdce" d="M 81.878906 223.480469 C 81.390625 223.601562 80.894531 223.6875 80.386719 223.738281 C 80.777344 220.730469 80.515625 217.894531 79.164062 215.347656 C 79.882812 215.035156 80.46875 214.734375 80.675781 214.542969 C 80.730469 214.496094 80.8125 214.507812 80.847656 214.570312 C 82.542969 217.671875 82.792969 220.382812 82.398438 222.917969 C 82.355469 223.195312 82.148438 223.414062 81.878906 223.480469 Z M 81.878906 223.480469 " fill-opacity="1" fill-rule="nonzero"/></g><g clip-path="url(#b2661a038b)"><path fill="#02c1c2" d="M 68.449219 226.992188 C 68.207031 227.042969 67.957031 227.085938 67.703125 227.125 C 67.039062 227.164062 66.414062 227.15625 65.820312 227.101562 C 58.511719 226.417969 56.5 218.609375 55.796875 209.039062 C 55.796875 209.039062 63.363281 207.863281 63.363281 207.863281 C 63.363281 207.863281 69.738281 206.871094 69.738281 206.871094 C 69.738281 206.871094 75.679688 205.945312 75.679688 205.945312 C 77.441406 217.828125 76.125 225.40625 68.449219 226.992188 Z M 68.449219 226.992188 " fill-opacity="1" fill-rule="nonzero"/></g><g clip-path="url(#8ba1d8b947)"><path fill="#35cdce" d="M 68.449219 226.992188 C 72.058594 225.953125 72.933594 212.484375 69.738281 206.871094 C 69.738281 206.871094 75.679688 205.945312 75.679688 205.945312 C 77.441406 217.828125 76.125 225.40625 68.449219 226.992188 Z M 68.449219 226.992188 " fill-opacity="1" fill-rule="nonzero"/></g><path fill="#2a245e" d="M 72.359375 210.332031 C 72.359375 210.332031 74.199219 209.960938 74.199219 209.960938 C 74.429688 209.914062 74.648438 210.09375 74.648438 210.332031 C 74.648438 210.332031 74.648438 214.4375 74.648438 214.4375 C 74.648438 214.601562 74.539062 214.75 74.382812 214.796875 C 73.773438 214.976562 73.144531 215.039062 72.5 215.003906 C 72.304688 214.992188 72.148438 214.835938 72.144531 214.636719 C 72.144531 214.636719 72.058594 210.710938 72.058594 210.710938 C 72.054688 210.527344 72.183594 210.371094 72.359375 210.332031 Z M 72.359375 210.332031 " fill-opacity="1" fill-rule="nonzero"/><path fill="#f0c808" d="M 72.453125 210.996094 C 72.453125 210.996094 72.492188 211.515625 72.492188 211.515625 C 72.496094 211.601562 72.574219 211.664062 72.660156 211.648438 C 72.660156 211.648438 74.101562 211.390625 74.101562 211.390625 C 74.171875 211.378906 74.222656 211.320312 74.222656 211.25 C 74.222656 211.25 74.222656 210.660156 74.222656 210.660156 C 74.222656 210.566406 74.136719 210.5 74.046875 210.519531 C 74.046875 210.519531 72.5625 210.84375 72.5625 210.84375 C 72.496094 210.859375 72.445312 210.925781 72.453125 210.996094 Z M 72.453125 210.996094 " fill-opacity="1" fill-rule="nonzero"/><path fill="#f0c808" d="M 72.527344 212.277344 C 72.527344 212.277344 72.527344 212.792969 72.527344 212.792969 C 72.527344 212.875 72.59375 212.9375 72.675781 212.9375 C 72.675781 212.9375 74.09375 212.875 74.09375 212.875 C 74.164062 212.871094 74.222656 212.8125 74.230469 212.738281 C 74.230469 212.738281 74.273438 211.984375 74.273438 211.984375 C 74.277344 211.890625 74.191406 211.816406 74.097656 211.835938 C 74.097656 211.835938 72.640625 212.140625 72.640625 212.140625 C 72.574219 212.152344 72.527344 212.210938 72.527344 212.277344 Z M 72.527344 212.277344 " fill-opacity="1" fill-rule="nonzero"/><path fill="#f0c808" d="M 72.527344 213.695312 C 72.527344 213.695312 72.527344 214.289062 72.527344 214.289062 C 72.527344 214.371094 72.597656 214.4375 72.679688 214.429688 C 72.679688 214.429688 74.148438 214.339844 74.148438 214.339844 C 74.222656 214.335938 74.28125 214.273438 74.28125 214.195312 C 74.28125 214.195312 74.28125 213.550781 74.28125 213.550781 C 74.28125 213.464844 74.210938 213.398438 74.125 213.410156 C 74.125 213.410156 72.65625 213.550781 72.65625 213.550781 C 72.582031 213.558594 72.527344 213.621094 72.527344 213.695312 Z M 72.527344 213.695312 " fill-opacity="1" fill-rule="nonzero"/><path fill="#2a245e" d="M 56.222656 209.625 C 59.3125 211.066406 73.105469 208.871094 75.488281 206.570312 C 75.863281 206.210938 75.699219 205.578125 75.203125 205.429688 C 71.949219 204.460938 58.949219 206.136719 56.082031 208.355469 C 55.640625 208.695312 55.714844 209.386719 56.222656 209.625 Z M 56.222656 209.625 " fill-opacity="1" fill-rule="nonzero"/><path fill="#02c1c2" d="M 67.21875 189.660156 C 67.21875 189.660156 65.96875 189.902344 65.96875 189.902344 C 65.96875 189.902344 62.90625 190.492188 62.90625 190.492188 C 62.921875 189.738281 62.828125 188.941406 64.917969 188.589844 C 64.988281 188.574219 65.0625 188.558594 65.132812 188.546875 C 66.34375 188.324219 67.101562 188.628906 67.21875 189.660156 Z M 67.21875 189.660156 " fill-opacity="1" fill-rule="nonzero"/><path fill="#35cdce" d="M 65.851562 189.929688 C 66.019531 189.089844 65.765625 188.6875 65.132812 188.546875 C 66.34375 188.324219 67.101562 188.628906 67.21875 189.660156 C 67.21875 189.660156 65.851562 189.929688 65.851562 189.929688 Z M 65.851562 189.929688 " fill-opacity="1" fill-rule="nonzero"/><path fill="#2a245e" d="M 64.164062 184.273438 C 64.425781 186.09375 64.441406 187.609375 64.167969 188.761719 C 64.167969 188.761719 65.886719 188.480469 65.886719 188.480469 C 65.015625 187.425781 64.691406 185.847656 64.53125 184.105469 C 64.53125 184.105469 64.164062 184.273438 64.164062 184.273438 Z M 64.164062 184.273438 " fill-opacity="1" fill-rule="nonzero"/><path fill="#f0c808" d="M 65.707031 183.984375 C 65.707031 184.738281 65.097656 185.347656 64.34375 185.351562 C 63.589844 185.351562 62.976562 184.738281 62.976562 183.984375 C 62.976562 183.230469 63.585938 182.621094 64.339844 182.621094 C 65.09375 182.621094 65.707031 183.230469 65.707031 183.984375 Z M 65.707031 183.984375 " fill-opacity="1" fill-rule="nonzero"/><path fill="#f3d339" d="M 65.707031 183.984375 C 65.707031 184.738281 65.097656 185.347656 64.34375 185.351562 C 64.234375 185.351562 64.125 185.335938 64.023438 185.3125 C 64.621094 185.167969 65.066406 184.628906 65.066406 183.984375 C 65.066406 183.339844 64.621094 182.800781 64.023438 182.660156 C 64.125 182.632812 64.230469 182.621094 64.339844 182.621094 C 65.09375 182.621094 65.707031 183.230469 65.707031 183.984375 Z M 65.707031 183.984375 " fill-opacity="1" fill-rule="nonzero"/><path fill="#02c1c2" d="M 75.09375 201.050781 C 73.929688 201.652344 72.738281 202.183594 71.515625 202.648438 C 68.835938 203.667969 66.003906 204.359375 63.023438 204.730469 C 61.597656 204.90625 60.136719 205.011719 58.644531 205.042969 C 58.238281 205.050781 57.882812 204.769531 57.792969 204.375 C 56.632812 199.054688 56.003906 193.980469 60.425781 191.257812 C 61.515625 190.585938 62.917969 190.054688 64.699219 189.699219 C 65.105469 189.609375 65.503906 189.535156 65.890625 189.480469 C 71.628906 188.695312 74.886719 192.210938 75.523438 200.28125 C 75.546875 200.601562 75.375 200.902344 75.09375 201.050781 Z M 75.09375 201.050781 " fill-opacity="1" fill-rule="nonzero"/><path fill="#35cdce" d="M 75.09375 201.050781 C 73.929688 201.652344 72.933594 202.316406 69.460938 203.355469 C 70.089844 198.941406 71.539062 190.78125 65.886719 189.484375 C 65.886719 189.484375 65.890625 189.480469 65.890625 189.480469 C 71.628906 188.695312 74.886719 192.210938 75.523438 200.28125 C 75.546875 200.601562 75.375 200.902344 75.09375 201.050781 Z M 75.09375 201.050781 " fill-opacity="1" fill-rule="nonzero"/><path fill="#2a245e" d="M 63.292969 192.878906 C 59.652344 194.636719 59.324219 197.539062 59.953125 200.714844 C 60.773438 203.054688 62.894531 202.59375 65.816406 200.921875 C 66.660156 200.4375 67.652344 200.253906 68.609375 200.425781 C 71.769531 200.980469 74.355469 199.851562 73.058594 195.933594 C 72.007812 193.503906 70.007812 192.332031 67.234375 192.109375 C 65.910156 192 64.609375 192.238281 63.292969 192.878906 Z M 63.292969 192.878906 " fill-opacity="1" fill-rule="nonzero"/><path fill="#f0c808" d="M 63.515625 197.039062 C 63.605469 197.628906 63.410156 198.148438 63.078125 198.203125 C 62.746094 198.253906 62.402344 197.816406 62.3125 197.226562 C 62.222656 196.636719 62.417969 196.117188 62.75 196.0625 C 63.082031 196.011719 63.425781 196.445312 63.515625 197.039062 Z M 63.515625 197.039062 " fill-opacity="1" fill-rule="nonzero"/><path fill="#f0c808" d="M 70.03125 196.035156 C 70.125 196.628906 69.925781 197.152344 69.59375 197.203125 C 69.261719 197.253906 68.914062 196.816406 68.820312 196.222656 C 68.730469 195.632812 68.929688 195.113281 69.261719 195.0625 C 69.59375 195.011719 69.941406 195.445312 70.03125 196.035156 Z M 70.03125 196.035156 " fill-opacity="1" fill-rule="nonzero"/><path fill="#f0c808" d="M 68.273438 197.722656 C 68.3125 198.214844 67.675781 199.113281 66.808594 199.179688 C 65.9375 199.246094 65.167969 198.457031 65.132812 197.96875 C 65.09375 197.480469 65.820312 197.707031 66.6875 197.640625 C 67.554688 197.570312 68.238281 197.234375 68.273438 197.722656 Z M 68.273438 197.722656 " fill-opacity="1" fill-rule="nonzero"/><g mask="url(#a1f050d779)"><g transform="matrix(1, 0, 0, 1, 53, 183)"><g clip-path="url(#b3dbdba95e)"><g clip-path="url(#0c04590346)"><path fill="#f0c808" d="M 1.066406 5.796875 C 1.066406 5.796875 1.640625 1.199219 1.640625 1.199219 C 1.660156 1.039062 1.828125 0.945312 1.976562 1.007812 C 1.976562 1.007812 4.355469 2.074219 4.355469 2.074219 C 4.5 2.140625 4.542969 2.324219 4.441406 2.445312 C 4.441406 2.445312 1.488281 5.980469 1.488281 5.980469 C 1.335938 6.164062 1.035156 6.035156 1.066406 5.796875 Z M 1.066406 5.796875 " fill-opacity="1" fill-rule="nonzero"/></g></g></g></g><g mask="url(#417d05d729)"><g transform="matrix(1, 0, 0, 1, 43, 182)"><g clip-path="url(#355bb8488c)"><g clip-path="url(#f16940cc87)"><path fill="#f0c808" d="M 3.9375 5.59375 C 3.9375 5.59375 1.203125 1.855469 1.203125 1.855469 C 1.105469 1.722656 1.164062 1.539062 1.316406 1.484375 C 1.316406 1.484375 3.777344 0.628906 3.777344 0.628906 C 3.929688 0.574219 4.085938 0.679688 4.097656 0.839844 C 4.097656 0.839844 4.371094 5.4375 4.371094 5.4375 C 4.386719 5.675781 4.078125 5.785156 3.9375 5.59375 Z M 3.9375 5.59375 " fill-opacity="1" fill-rule="nonzero"/></g></g></g></g><g mask="url(#f2c9d22e41)"><g transform="matrix(1, 0, 0, 1, 37, 188)"><g clip-path="url(#bc05e90ec7)"><g clip-path="url(#929730cb05)"><path fill="#f0c808" d="M 6.191406 4.445312 C 6.191406 4.445312 1.5625 4.289062 1.5625 4.289062 C 1.402344 4.28125 1.289062 4.125 1.34375 3.972656 C 1.34375 3.972656 2.1875 1.503906 2.1875 1.503906 C 2.238281 1.355469 2.417969 1.292969 2.550781 1.386719 C 2.550781 1.386719 6.335938 4.007812 6.335938 4.007812 C 6.535156 4.144531 6.433594 4.453125 6.191406 4.445312 Z M 6.191406 4.445312 " fill-opacity="1" fill-rule="nonzero"/></g></g></g></g><g mask="url(#de41b1114d)"><g transform="matrix(1, 0, 0, 1, 39, 199)"><g clip-path="url(#4dcb3be73a)"><g clip-path="url(#225f6a7195)"><path fill="#f0c808" d="M 5.78125 0.714844 C 5.78125 0.714844 2.78125 4.25 2.78125 4.25 C 2.679688 4.371094 2.484375 4.359375 2.398438 4.222656 C 2.398438 4.222656 0.988281 2.027344 0.988281 2.027344 C 0.90625 1.894531 0.96875 1.714844 1.121094 1.667969 C 1.121094 1.667969 5.53125 0.332031 5.53125 0.332031 C 5.757812 0.261719 5.9375 0.535156 5.78125 0.714844 Z M 5.78125 0.714844 " fill-opacity="1" fill-rule="nonzero"/></g></g></g></g><path fill="#2a245e" d="M 55.117188 214.15625 C 55.320312 215.113281 55.839844 215.695312 56.640625 215.953125 C 57.777344 215.773438 58.820312 215.457031 59.550781 214.695312 C 60.148438 213.835938 60.03125 212.945312 59.386719 212.03125 C 59.386719 212.03125 55.117188 214.15625 55.117188 214.15625 Z M 55.117188 214.15625 " fill-opacity="1" fill-rule="nonzero"/><path fill="#02c1c2" d="M 59.386719 212.03125 C 59.378906 212.222656 59.320312 212.40625 59.210938 212.5625 C 58.820312 213.117188 58.371094 213.535156 57.859375 213.816406 C 57.1875 214.191406 56.410156 214.335938 55.535156 214.253906 C 55.203125 214.222656 54.886719 214.085938 54.628906 213.871094 C 52.4375 212.054688 50.695312 208.875 49.277344 204.710938 C 49.089844 204.164062 49.417969 203.574219 49.976562 203.449219 C 51.511719 203.109375 52.941406 202.609375 54.261719 201.960938 C 54.628906 201.78125 54.988281 201.589844 55.339844 201.386719 C 55.8125 201.109375 56.425781 201.285156 56.691406 201.765625 C 58.582031 205.203125 59.492188 208.625 59.386719 212.03125 Z M 59.386719 212.03125 " fill-opacity="1" fill-rule="nonzero"/><path fill="#35cdce" d="M 59.386719 212.03125 C 59.378906 212.222656 59.320312 212.40625 59.210938 212.5625 C 58.820312 213.117188 58.371094 213.535156 57.859375 213.816406 C 57.703125 209.1875 56.777344 205.058594 54.261719 201.960938 C 54.628906 201.78125 54.988281 201.589844 55.339844 201.386719 C 55.8125 201.109375 56.425781 201.285156 56.691406 201.765625 C 58.578125 205.203125 59.492188 208.625 59.386719 212.03125 Z M 59.386719 212.03125 " fill-opacity="1" fill-rule="nonzero"/><path fill="#2a245e" d="M 53.792969 195.871094 C 54.140625 195.230469 54.523438 194.636719 55.058594 194.242188 C 55.230469 194.121094 55.429688 194.035156 55.636719 194.03125 C 56.800781 194.003906 57.378906 195.992188 56.632812 196.957031 C 55.96875 197.730469 55.238281 198.199219 54.453125 198.460938 C 54.453125 198.460938 53.792969 195.871094 53.792969 195.871094 Z M 53.792969 195.871094 " fill-opacity="1" fill-rule="nonzero"/><path fill="#2a245e" d="M 51.195312 195.820312 C 50.59375 194.21875 50.195312 192.929688 50.011719 191.976562 C 49.84375 191.082031 50.546875 190.238281 51.457031 190.300781 C 51.484375 190.300781 51.511719 190.304688 51.542969 190.308594 C 51.945312 190.363281 52.289062 190.632812 52.464844 191 C 52.949219 192.007812 53.191406 193.726562 53.359375 195.679688 C 53.359375 195.679688 51.195312 195.820312 51.195312 195.820312 Z M 51.195312 195.820312 " fill-opacity="1" fill-rule="nonzero"/><path fill="#2a245e" d="M 48.808594 197.121094 C 47.96875 195.847656 47.105469 194.558594 46.664062 193.582031 C 46.425781 193.050781 46.460938 192.425781 46.796875 191.949219 C 47.019531 191.636719 47.3125 191.464844 47.6875 191.445312 C 48.1875 191.417969 48.65625 191.695312 48.910156 192.128906 C 49.480469 193.105469 50.019531 194.550781 50.554688 196.0625 C 50.554688 196.0625 48.808594 197.121094 48.808594 197.121094 Z M 48.808594 197.121094 " fill-opacity="1" fill-rule="nonzero"/><path fill="#2a245e" d="M 48.316406 197.578125 C 47.808594 196.714844 47.304688 195.863281 46.832031 195.355469 C 46.496094 194.996094 45.972656 194.84375 45.507812 195.011719 C 45.1875 195.128906 44.996094 195.351562 44.925781 195.671875 C 44.859375 195.988281 44.933594 196.320312 45.113281 196.585938 C 45.75 197.523438 46.609375 198.292969 47.546875 199 C 47.546875 199 48.316406 197.578125 48.316406 197.578125 Z M 48.316406 197.578125 " fill-opacity="1" fill-rule="nonzero"/><path fill="#2a245e" d="M 47.546875 199 C 47.726562 197.097656 51.980469 194.742188 53.792969 195.871094 C 54.980469 198.605469 54.613281 200.496094 52.355469 201.363281 C 50.140625 202.382812 48.550781 201.558594 47.546875 199 Z M 47.546875 199 " fill-opacity="1" fill-rule="nonzero"/><g clip-path="url(#53ca218cbd)"><g clip-path="url(#eb1856acdc)"><path fill="#ffffff" d="M 94.398438 173.730469 L 108.171875 173.730469 L 108.171875 187.5 L 94.398438 187.5 Z M 94.398438 173.730469 " fill-opacity="1" fill-rule="nonzero"/></g></g><g fill="#ffffff" fill-opacity="1"><g transform="translate(156.049447, 205.683224)"><g><path d="M 6.957031 0 L 9.214844 0 L 9.214844 -10.769531 C 9.214844 -12.859375 7.578125 -14.496094 5.488281 -14.496094 L 0.828125 -14.496094 L 0.828125 -12.21875 L 5.488281 -12.21875 C 6.296875 -12.21875 6.957031 -11.574219 6.957031 -10.769531 Z M 9.214844 -12.21875 L 15.324219 -12.21875 L 15.324219 -14.496094 L 9.214844 -14.496094 Z M 9.214844 -12.21875 "/></g></g></g><g fill="#ffffff" fill-opacity="1"><g transform="translate(171.579477, 205.683224)"><g><path d="M 3.105469 -12.21875 L 15.324219 -12.21875 L 15.324219 -14.496094 L 3.105469 -14.496094 Z M 4.554688 0 L 15.324219 0 L 15.324219 -2.277344 L 4.554688 -2.277344 C 3.769531 -2.277344 3.105469 -2.917969 3.105469 -3.726562 L 3.105469 -12.21875 L 0.828125 -12.21875 L 0.828125 -3.726562 C 0.828125 -1.65625 2.484375 0 4.554688 0 Z M 4.535156 -6.109375 L 13.875 -6.109375 L 13.875 -8.386719 L 4.535156 -8.386719 Z M 4.535156 -6.109375 "/></g></g></g><g fill="#ffffff" fill-opacity="1"><g transform="translate(187.109508, 205.683224)"><g><path d="M 0.828125 -2.277344 L 3.105469 -2.277344 L 3.105469 -10.769531 C 3.105469 -11.574219 3.75 -12.21875 4.554688 -12.21875 L 13.046875 -12.21875 L 13.046875 -14.496094 L 4.554688 -14.496094 C 2.464844 -14.496094 0.828125 -12.859375 0.828125 -10.769531 Z M 13.046875 -9.941406 L 15.324219 -9.941406 L 15.324219 -12.21875 L 13.046875 -12.21875 Z M 3.105469 0 L 15.324219 0 L 15.324219 -3.726562 L 13.046875 -3.726562 L 13.046875 -2.277344 L 3.105469 -2.277344 Z M 3.105469 0 "/></g></g></g><g fill="#ffffff" fill-opacity="1"><g transform="translate(202.639537, 205.683224)"><g><path d="M 13.046875 0 L 13.046875 -2.277344 C 11.492188 -2.277344 10.167969 -5.425781 9.109375 -7.703125 C 7.578125 -11.265625 6.046875 -14.496094 3.105469 -14.496094 L 3.105469 -12.21875 C 4.660156 -12.21875 5.984375 -9.132812 7.019531 -6.832031 C 8.53125 -3.4375 10.042969 0 13.046875 0 Z M 13.046875 -2.277344 L 15.324219 -2.277344 L 15.324219 -14.496094 L 13.046875 -14.496094 Z M 0.828125 0 L 3.105469 0 L 3.105469 -12.21875 L 0.828125 -12.21875 Z M 0.828125 0 "/></g></g></g><g fill="#ffffff" fill-opacity="1"><g transform="translate(218.16957, 205.683224)"><g><path d="M 13.046875 -2.277344 L 15.324219 -2.277344 L 15.324219 -10.769531 C 15.324219 -12.964844 13.769531 -14.496094 11.597656 -14.496094 L 3.105469 -14.496094 L 3.105469 -12.21875 L 11.597656 -12.21875 C 12.382812 -12.21875 13.046875 -11.574219 13.046875 -10.769531 Z M 4.554688 0 L 13.046875 0 L 13.046875 -2.277344 L 4.554688 -2.277344 C 3.75 -2.277344 3.105469 -2.917969 3.105469 -3.726562 L 3.105469 -12.21875 L 0.828125 -12.21875 L 0.828125 -3.726562 C 0.828125 -1.53125 2.359375 0 4.554688 0 Z M 4.554688 0 "/></g></g></g><g fill="#ffffff" fill-opacity="1"><g transform="translate(233.699602, 205.683224)"><g><path d="M 4.554688 0 L 14.082031 0 L 14.082031 -2.277344 L 4.554688 -2.277344 C 3.75 -2.277344 3.105469 -2.917969 3.105469 -3.726562 L 3.105469 -14.496094 L 0.828125 -14.496094 L 0.828125 -3.726562 C 0.828125 -1.636719 2.464844 0 4.554688 0 Z M 4.554688 0 "/></g></g></g><g fill="#ffffff" fill-opacity="1"><g transform="translate(247.987218, 205.683224)"><g><path d="M 13.046875 -2.277344 L 15.324219 -2.277344 L 15.324219 -10.769531 C 15.324219 -12.964844 13.769531 -14.496094 11.597656 -14.496094 L 3.105469 -14.496094 L 3.105469 -12.21875 L 11.597656 -12.21875 C 12.382812 -12.21875 13.046875 -11.574219 13.046875 -10.769531 Z M 4.554688 0 L 13.046875 0 L 13.046875 -2.277344 L 4.554688 -2.277344 C 3.75 -2.277344 3.105469 -2.917969 3.105469 -3.726562 L 3.105469 -12.21875 L 0.828125 -12.21875 L 0.828125 -3.726562 C 0.828125 -1.53125 2.359375 0 4.554688 0 Z M 4.554688 0 "/></g></g></g><g fill="#ffffff" fill-opacity="1"><g transform="translate(263.517244, 205.683224)"><g><path d="M 4.535156 0 L 13.046875 0 L 13.046875 -2.277344 L 4.535156 -2.277344 C 3.75 -2.277344 3.085938 -2.917969 3.085938 -3.726562 L 3.085938 -10.769531 C 3.085938 -11.574219 3.75 -12.21875 4.535156 -12.21875 L 13.875 -12.21875 L 13.875 -14.496094 L 4.535156 -14.496094 C 2.464844 -14.496094 0.828125 -12.859375 0.828125 -10.769531 L 0.828125 -3.726562 C 0.828125 -1.65625 2.464844 0 4.535156 0 Z M 13.066406 -2.277344 L 15.324219 -2.277344 L 15.324219 -8.386719 L 6.605469 -8.386719 L 6.605469 -6.109375 L 13.066406 -6.109375 Z M 13.066406 -2.277344 "/></g></g></g><g fill="#ffffff" fill-opacity="1"><g transform="translate(279.047276, 205.683224)"><g><path d="M 0.828125 -12.21875 L 14.082031 -12.21875 L 14.082031 -14.496094 L 0.828125 -14.496094 Z M 10.042969 0 L 14.082031 0 L 14.082031 -2.277344 L 10.042969 -2.277344 C 9.257812 -2.277344 8.59375 -2.917969 8.59375 -3.726562 L 8.59375 -10.769531 L 6.335938 -10.769531 L 6.335938 -3.726562 C 6.335938 -1.65625 7.972656 0 10.042969 0 Z M 0.828125 0 L 6.316406 0 L 6.316406 -2.277344 L 0.828125 -2.277344 Z M 0.828125 0 "/></g></g></g><g fill="#ffffff" fill-opacity="1"><g transform="translate(293.334892, 205.683224)"><g><path d="M 13.046875 0 L 15.324219 0 L 15.324219 -10.769531 C 15.324219 -12.859375 13.667969 -14.496094 11.574219 -14.496094 L 3.085938 -14.496094 L 3.085938 -12.21875 L 11.574219 -12.21875 C 12.382812 -12.21875 13.046875 -11.574219 13.046875 -10.769531 Z M 0.828125 0 L 3.085938 0 L 3.085938 -4.660156 L 11.597656 -4.660156 L 11.597656 -6.9375 L 3.085938 -6.9375 L 3.085938 -12.21875 L 0.828125 -12.21875 Z M 0.828125 0 "/></g></g></g><g fill="#00fffc" fill-opacity="1"><g transform="translate(166.127905, 238.659764)"><g><path d="M 0.234375 -4.1875 L 3.265625 -4.1875 L 3.265625 -3.515625 L 2.109375 -3.515625 L 2.109375 0 L 1.375 0 L 1.375 -3.515625 L 0.234375 -3.515625 Z M 0.234375 -4.1875 "/></g></g></g><g fill="#00fffc" fill-opacity="1"><g transform="translate(170.315332, 238.659764)"><g><path d="M 0.484375 0 L 0.484375 -0.640625 L 1.375 -0.640625 L 1.375 -3.546875 L 0.484375 -3.546875 L 0.484375 -4.1875 L 3 -4.1875 L 3 -3.546875 L 2.109375 -3.546875 L 2.109375 -0.640625 L 3 -0.640625 L 3 0 Z M 0.484375 0 "/></g></g></g><g fill="#00fffc" fill-opacity="1"><g transform="translate(174.502758, 238.659764)"><g><path d="M 0.5 0 L 0.5 -4.1875 L 3.078125 -4.1875 L 3.078125 -3.546875 L 1.21875 -3.546875 L 1.21875 -2.46875 L 2.875 -2.46875 L 2.875 -1.828125 L 1.21875 -1.828125 L 1.21875 -0.640625 L 3.078125 -0.640625 L 3.078125 0 Z M 0.5 0 "/></g></g></g><g fill="#00fffc" fill-opacity="1"><g transform="translate(178.690184, 238.659764)"><g><path d="M 1.296875 -4.1875 L 2.296875 -1.40625 C 2.328125 -1.34375 2.347656 -1.269531 2.359375 -1.1875 C 2.378906 -1.101562 2.394531 -1.023438 2.40625 -0.953125 C 2.425781 -0.859375 2.441406 -0.769531 2.453125 -0.6875 L 2.515625 -0.6875 C 2.515625 -0.6875 2.507812 -0.710938 2.5 -0.765625 C 2.5 -0.828125 2.492188 -0.898438 2.484375 -0.984375 C 2.472656 -1.078125 2.460938 -1.175781 2.453125 -1.28125 C 2.441406 -1.394531 2.4375 -1.503906 2.4375 -1.609375 L 2.4375 -4.1875 L 3.09375 -4.1875 L 3.09375 0 L 2.1875 0 L 1.203125 -2.796875 C 1.171875 -2.867188 1.144531 -2.945312 1.125 -3.03125 C 1.113281 -3.113281 1.101562 -3.191406 1.09375 -3.265625 C 1.070312 -3.347656 1.054688 -3.425781 1.046875 -3.5 L 0.96875 -3.5 C 0.988281 -3.40625 1.003906 -3.304688 1.015625 -3.203125 C 1.015625 -3.117188 1.019531 -3.019531 1.03125 -2.90625 C 1.039062 -2.800781 1.046875 -2.695312 1.046875 -2.59375 L 1.046875 0 L 0.40625 0 L 0.40625 -4.1875 Z M 1.296875 -4.1875 "/></g></g></g><g fill="#00fffc" fill-opacity="1"><g transform="translate(182.877611, 238.659764)"><g><path d="M 1.71875 -0.671875 C 1.925781 -0.671875 2.09375 -0.726562 2.21875 -0.84375 C 2.34375 -0.96875 2.40625 -1.128906 2.40625 -1.328125 L 2.40625 -2.859375 C 2.40625 -3.054688 2.34375 -3.210938 2.21875 -3.328125 C 2.09375 -3.453125 1.925781 -3.515625 1.71875 -3.515625 L 1.15625 -3.515625 L 1.15625 -0.671875 Z M 0.421875 0 L 0.421875 -4.1875 L 1.71875 -4.1875 C 1.925781 -4.1875 2.117188 -4.15625 2.296875 -4.09375 C 2.472656 -4.03125 2.617188 -3.9375 2.734375 -3.8125 C 2.859375 -3.695312 2.957031 -3.554688 3.03125 -3.390625 C 3.101562 -3.234375 3.140625 -3.054688 3.140625 -2.859375 L 3.140625 -1.328125 C 3.140625 -1.128906 3.101562 -0.945312 3.03125 -0.78125 C 2.957031 -0.625 2.859375 -0.484375 2.734375 -0.359375 C 2.617188 -0.242188 2.472656 -0.15625 2.296875 -0.09375 C 2.117188 -0.03125 1.925781 0 1.71875 0 Z M 0.421875 0 "/></g></g></g><g fill="#00fffc" fill-opacity="1"><g transform="translate(187.065039, 238.659764)"><g><path d="M 0.140625 0 L 1.265625 -4.1875 L 2.25 -4.1875 L 3.34375 0 L 2.59375 0 L 2.34375 -1.046875 L 1.140625 -1.046875 L 0.890625 0 Z M 1.265625 -1.625 L 2.203125 -1.625 L 1.859375 -3.125 C 1.835938 -3.1875 1.820312 -3.253906 1.8125 -3.328125 C 1.800781 -3.398438 1.789062 -3.460938 1.78125 -3.515625 C 1.769531 -3.578125 1.757812 -3.640625 1.75 -3.703125 L 1.71875 -3.703125 C 1.71875 -3.640625 1.710938 -3.578125 1.703125 -3.515625 C 1.691406 -3.460938 1.679688 -3.398438 1.671875 -3.328125 C 1.660156 -3.253906 1.644531 -3.1875 1.625 -3.125 Z M 1.265625 -1.625 "/></g></g></g><g fill="#00fffc" fill-opacity="1"><g transform="translate(191.252466, 238.659764)"><g/></g></g><g fill="#00fffc" fill-opacity="1"><g transform="translate(195.439893, 238.659764)"><g><path d="M 1.71875 -0.671875 C 1.925781 -0.671875 2.09375 -0.726562 2.21875 -0.84375 C 2.34375 -0.96875 2.40625 -1.128906 2.40625 -1.328125 L 2.40625 -2.859375 C 2.40625 -3.054688 2.34375 -3.210938 2.21875 -3.328125 C 2.09375 -3.453125 1.925781 -3.515625 1.71875 -3.515625 L 1.15625 -3.515625 L 1.15625 -0.671875 Z M 0.421875 0 L 0.421875 -4.1875 L 1.71875 -4.1875 C 1.925781 -4.1875 2.117188 -4.15625 2.296875 -4.09375 C 2.472656 -4.03125 2.617188 -3.9375 2.734375 -3.8125 C 2.859375 -3.695312 2.957031 -3.554688 3.03125 -3.390625 C 3.101562 -3.234375 3.140625 -3.054688 3.140625 -2.859375 L 3.140625 -1.328125 C 3.140625 -1.128906 3.101562 -0.945312 3.03125 -0.78125 C 2.957031 -0.625 2.859375 -0.484375 2.734375 -0.359375 C 2.617188 -0.242188 2.472656 -0.15625 2.296875 -0.09375 C 2.117188 -0.03125 1.925781 0 1.71875 0 Z M 0.421875 0 "/></g></g></g><g fill="#00fffc" fill-opacity="1"><g transform="translate(199.62732, 238.659764)"><g><path d="M 0.5 0 L 0.5 -4.1875 L 3.078125 -4.1875 L 3.078125 -3.546875 L 1.21875 -3.546875 L 1.21875 -2.46875 L 2.875 -2.46875 L 2.875 -1.828125 L 1.21875 -1.828125 L 1.21875 -0.640625 L 3.078125 -0.640625 L 3.078125 0 Z M 0.5 0 "/></g></g></g><g fill="#00fffc" fill-opacity="1"><g transform="translate(203.814747, 238.659764)"><g/></g></g><g fill="#00fffc" fill-opacity="1"><g transform="translate(208.002172, 238.659764)"><g><path d="M 1.875 -4.1875 C 2.082031 -4.1875 2.269531 -4.15625 2.4375 -4.09375 C 2.613281 -4.03125 2.757812 -3.941406 2.875 -3.828125 C 3 -3.722656 3.09375 -3.59375 3.15625 -3.4375 C 3.226562 -3.28125 3.265625 -3.101562 3.265625 -2.90625 C 3.265625 -2.71875 3.226562 -2.546875 3.15625 -2.390625 C 3.09375 -2.234375 3 -2.097656 2.875 -1.984375 C 2.757812 -1.878906 2.613281 -1.796875 2.4375 -1.734375 C 2.269531 -1.671875 2.082031 -1.640625 1.875 -1.640625 L 1.15625 -1.640625 L 1.15625 0 L 0.4375 0 L 0.4375 -4.1875 Z M 1.15625 -3.5625 L 1.15625 -2.265625 L 1.875 -2.265625 C 2.070312 -2.265625 2.226562 -2.320312 2.34375 -2.4375 C 2.46875 -2.550781 2.53125 -2.707031 2.53125 -2.90625 C 2.53125 -3.101562 2.46875 -3.257812 2.34375 -3.375 C 2.226562 -3.5 2.070312 -3.5625 1.875 -3.5625 Z M 1.15625 -3.5625 "/></g></g></g><g fill="#00fffc" fill-opacity="1"><g transform="translate(212.189599, 238.659764)"><g><path d="M 0.4375 -4.1875 L 1.8125 -4.1875 C 2.019531 -4.1875 2.207031 -4.15625 2.375 -4.09375 C 2.550781 -4.03125 2.695312 -3.941406 2.8125 -3.828125 C 2.9375 -3.722656 3.03125 -3.59375 3.09375 -3.4375 C 3.164062 -3.289062 3.203125 -3.117188 3.203125 -2.921875 C 3.203125 -2.648438 3.128906 -2.414062 2.984375 -2.21875 C 2.847656 -2.019531 2.660156 -1.875 2.421875 -1.78125 L 3.265625 0 L 2.453125 0 L 1.703125 -1.671875 L 1.15625 -1.671875 L 1.15625 0 L 0.4375 0 Z M 1.15625 -2.265625 L 1.8125 -2.265625 C 2.007812 -2.265625 2.164062 -2.320312 2.28125 -2.4375 C 2.40625 -2.550781 2.46875 -2.707031 2.46875 -2.90625 C 2.46875 -3.101562 2.40625 -3.257812 2.28125 -3.375 C 2.164062 -3.5 2.007812 -3.5625 1.8125 -3.5625 L 1.15625 -3.5625 Z M 1.15625 -2.265625 "/></g></g></g><g fill="#00fffc" fill-opacity="1"><g transform="translate(216.377026, 238.659764)"><g><path d="M 1.078125 -1.21875 C 1.078125 -1.03125 1.132812 -0.875 1.25 -0.75 C 1.375 -0.632812 1.539062 -0.578125 1.75 -0.578125 C 1.945312 -0.578125 2.101562 -0.632812 2.21875 -0.75 C 2.34375 -0.875 2.40625 -1.03125 2.40625 -1.21875 L 2.40625 -2.96875 C 2.40625 -3.164062 2.34375 -3.320312 2.21875 -3.4375 C 2.101562 -3.550781 1.945312 -3.609375 1.75 -3.609375 C 1.539062 -3.609375 1.375 -3.550781 1.25 -3.4375 C 1.132812 -3.320312 1.078125 -3.164062 1.078125 -2.96875 Z M 0.359375 -2.96875 C 0.359375 -3.15625 0.390625 -3.328125 0.453125 -3.484375 C 0.515625 -3.640625 0.601562 -3.773438 0.71875 -3.890625 C 0.84375 -4.003906 0.992188 -4.09375 1.171875 -4.15625 C 1.347656 -4.21875 1.539062 -4.25 1.75 -4.25 C 1.957031 -4.25 2.144531 -4.21875 2.3125 -4.15625 C 2.488281 -4.09375 2.632812 -4.003906 2.75 -3.890625 C 2.875 -3.773438 2.96875 -3.640625 3.03125 -3.484375 C 3.101562 -3.328125 3.140625 -3.15625 3.140625 -2.96875 L 3.140625 -1.21875 C 3.140625 -1.03125 3.101562 -0.859375 3.03125 -0.703125 C 2.96875 -0.546875 2.875 -0.410156 2.75 -0.296875 C 2.625 -0.179688 2.476562 -0.09375 2.3125 -0.03125 C 2.144531 0.03125 1.957031 0.0625 1.75 0.0625 C 1.539062 0.0625 1.347656 0.03125 1.171875 -0.03125 C 0.992188 -0.09375 0.84375 -0.175781 0.71875 -0.28125 C 0.601562 -0.394531 0.515625 -0.53125 0.453125 -0.6875 C 0.390625 -0.851562 0.359375 -1.03125 0.359375 -1.21875 Z M 0.359375 -2.96875 "/></g></g></g><g fill="#00fffc" fill-opacity="1"><g transform="translate(220.564453, 238.659764)"><g><path d="M 1.71875 -0.671875 C 1.925781 -0.671875 2.09375 -0.726562 2.21875 -0.84375 C 2.34375 -0.96875 2.40625 -1.128906 2.40625 -1.328125 L 2.40625 -2.859375 C 2.40625 -3.054688 2.34375 -3.210938 2.21875 -3.328125 C 2.09375 -3.453125 1.925781 -3.515625 1.71875 -3.515625 L 1.15625 -3.515625 L 1.15625 -0.671875 Z M 0.421875 0 L 0.421875 -4.1875 L 1.71875 -4.1875 C 1.925781 -4.1875 2.117188 -4.15625 2.296875 -4.09375 C 2.472656 -4.03125 2.617188 -3.9375 2.734375 -3.8125 C 2.859375 -3.695312 2.957031 -3.554688 3.03125 -3.390625 C 3.101562 -3.234375 3.140625 -3.054688 3.140625 -2.859375 L 3.140625 -1.328125 C 3.140625 -1.128906 3.101562 -0.945312 3.03125 -0.78125 C 2.957031 -0.625 2.859375 -0.484375 2.734375 -0.359375 C 2.617188 -0.242188 2.472656 -0.15625 2.296875 -0.09375 C 2.117188 -0.03125 1.925781 0 1.71875 0 Z M 0.421875 0 "/></g></g></g><g fill="#00fffc" fill-opacity="1"><g transform="translate(224.75188, 238.659764)"><g><path d="M 1.75 0.0625 C 1.320312 0.0625 0.988281 -0.046875 0.75 -0.265625 C 0.519531 -0.492188 0.40625 -0.804688 0.40625 -1.203125 L 0.40625 -4.1875 L 1.140625 -4.1875 L 1.140625 -1.21875 C 1.140625 -1.007812 1.191406 -0.847656 1.296875 -0.734375 C 1.398438 -0.628906 1.550781 -0.578125 1.75 -0.578125 C 1.9375 -0.578125 2.082031 -0.628906 2.1875 -0.734375 C 2.300781 -0.847656 2.359375 -1.007812 2.359375 -1.21875 L 2.359375 -4.1875 L 3.078125 -4.1875 L 3.078125 -1.203125 C 3.078125 -0.804688 2.957031 -0.492188 2.71875 -0.265625 C 2.488281 -0.046875 2.164062 0.0625 1.75 0.0625 Z M 1.75 0.0625 "/></g></g></g><g fill="#00fffc" fill-opacity="1"><g transform="translate(228.939307, 238.659764)"><g><path d="M 1.765625 -4.25 C 1.972656 -4.25 2.160156 -4.21875 2.328125 -4.15625 C 2.492188 -4.09375 2.632812 -4.007812 2.75 -3.90625 C 2.875 -3.800781 2.96875 -3.671875 3.03125 -3.515625 C 3.101562 -3.367188 3.144531 -3.203125 3.15625 -3.015625 L 2.421875 -3.015625 C 2.421875 -3.191406 2.359375 -3.332031 2.234375 -3.4375 C 2.117188 -3.539062 1.960938 -3.59375 1.765625 -3.59375 C 1.566406 -3.59375 1.40625 -3.535156 1.28125 -3.421875 C 1.164062 -3.304688 1.109375 -3.148438 1.109375 -2.953125 L 1.109375 -1.21875 C 1.109375 -1.03125 1.164062 -0.878906 1.28125 -0.765625 C 1.394531 -0.648438 1.554688 -0.59375 1.765625 -0.59375 C 1.960938 -0.59375 2.117188 -0.644531 2.234375 -0.75 C 2.359375 -0.851562 2.421875 -1 2.421875 -1.1875 L 3.15625 -1.1875 C 3.132812 -0.800781 3 -0.492188 2.75 -0.265625 C 2.507812 -0.046875 2.179688 0.0625 1.765625 0.0625 C 1.554688 0.0625 1.367188 0.03125 1.203125 -0.03125 C 1.035156 -0.09375 0.890625 -0.175781 0.765625 -0.28125 C 0.648438 -0.394531 0.554688 -0.53125 0.484375 -0.6875 C 0.421875 -0.851562 0.390625 -1.03125 0.390625 -1.21875 L 0.390625 -2.953125 C 0.390625 -3.148438 0.421875 -3.328125 0.484375 -3.484375 C 0.554688 -3.640625 0.648438 -3.773438 0.765625 -3.890625 C 0.890625 -4.003906 1.035156 -4.09375 1.203125 -4.15625 C 1.367188 -4.21875 1.554688 -4.25 1.765625 -4.25 Z M 1.765625 -4.25 "/></g></g></g><g fill="#00fffc" fill-opacity="1"><g transform="translate(233.126735, 238.659764)"><g><path d="M 0.234375 -4.1875 L 3.265625 -4.1875 L 3.265625 -3.515625 L 2.109375 -3.515625 L 2.109375 0 L 1.375 0 L 1.375 -3.515625 L 0.234375 -3.515625 Z M 0.234375 -4.1875 "/></g></g></g><g fill="#00fffc" fill-opacity="1"><g transform="translate(237.314162, 238.659764)"><g><path d="M 1.078125 -1.21875 C 1.078125 -1.03125 1.132812 -0.875 1.25 -0.75 C 1.375 -0.632812 1.539062 -0.578125 1.75 -0.578125 C 1.945312 -0.578125 2.101562 -0.632812 2.21875 -0.75 C 2.34375 -0.875 2.40625 -1.03125 2.40625 -1.21875 L 2.40625 -2.96875 C 2.40625 -3.164062 2.34375 -3.320312 2.21875 -3.4375 C 2.101562 -3.550781 1.945312 -3.609375 1.75 -3.609375 C 1.539062 -3.609375 1.375 -3.550781 1.25 -3.4375 C 1.132812 -3.320312 1.078125 -3.164062 1.078125 -2.96875 Z M 0.359375 -2.96875 C 0.359375 -3.15625 0.390625 -3.328125 0.453125 -3.484375 C 0.515625 -3.640625 0.601562 -3.773438 0.71875 -3.890625 C 0.84375 -4.003906 0.992188 -4.09375 1.171875 -4.15625 C 1.347656 -4.21875 1.539062 -4.25 1.75 -4.25 C 1.957031 -4.25 2.144531 -4.21875 2.3125 -4.15625 C 2.488281 -4.09375 2.632812 -4.003906 2.75 -3.890625 C 2.875 -3.773438 2.96875 -3.640625 3.03125 -3.484375 C 3.101562 -3.328125 3.140625 -3.15625 3.140625 -2.96875 L 3.140625 -1.21875 C 3.140625 -1.03125 3.101562 -0.859375 3.03125 -0.703125 C 2.96875 -0.546875 2.875 -0.410156 2.75 -0.296875 C 2.625 -0.179688 2.476562 -0.09375 2.3125 -0.03125 C 2.144531 0.03125 1.957031 0.0625 1.75 0.0625 C 1.539062 0.0625 1.347656 0.03125 1.171875 -0.03125 C 0.992188 -0.09375 0.84375 -0.175781 0.71875 -0.28125 C 0.601562 -0.394531 0.515625 -0.53125 0.453125 -0.6875 C 0.390625 -0.851562 0.359375 -1.03125 0.359375 -1.21875 Z M 0.359375 -2.96875 "/></g></g></g><g fill="#00fffc" fill-opacity="1"><g transform="translate(241.501589, 238.659764)"><g><path d="M 1.75 0.0625 C 1.539062 0.0625 1.347656 0.0351562 1.171875 -0.015625 C 1.003906 -0.078125 0.859375 -0.15625 0.734375 -0.25 C 0.609375 -0.351562 0.507812 -0.476562 0.4375 -0.625 C 0.363281 -0.769531 0.320312 -0.929688 0.3125 -1.109375 L 1.0625 -1.109375 C 1.070312 -0.941406 1.140625 -0.8125 1.265625 -0.71875 C 1.390625 -0.625 1.554688 -0.578125 1.765625 -0.578125 C 1.972656 -0.578125 2.132812 -0.625 2.25 -0.71875 C 2.375 -0.8125 2.4375 -0.941406 2.4375 -1.109375 C 2.4375 -1.253906 2.390625 -1.378906 2.296875 -1.484375 C 2.210938 -1.585938 2.085938 -1.664062 1.921875 -1.71875 L 1.484375 -1.84375 C 0.765625 -2.039062 0.40625 -2.457031 0.40625 -3.09375 C 0.40625 -3.257812 0.4375 -3.414062 0.5 -3.5625 C 0.5625 -3.707031 0.648438 -3.832031 0.765625 -3.9375 C 0.878906 -4.039062 1.019531 -4.117188 1.1875 -4.171875 C 1.351562 -4.222656 1.539062 -4.25 1.75 -4.25 C 2.144531 -4.25 2.460938 -4.144531 2.703125 -3.9375 C 2.953125 -3.738281 3.085938 -3.460938 3.109375 -3.109375 L 2.359375 -3.109375 C 2.359375 -3.265625 2.296875 -3.382812 2.171875 -3.46875 C 2.054688 -3.5625 1.910156 -3.609375 1.734375 -3.609375 C 1.546875 -3.609375 1.394531 -3.5625 1.28125 -3.46875 C 1.175781 -3.382812 1.125 -3.269531 1.125 -3.125 C 1.125 -2.84375 1.296875 -2.65625 1.640625 -2.5625 L 2.09375 -2.421875 C 2.445312 -2.328125 2.710938 -2.171875 2.890625 -1.953125 C 3.078125 -1.734375 3.171875 -1.460938 3.171875 -1.140625 C 3.171875 -0.960938 3.132812 -0.800781 3.0625 -0.65625 C 3 -0.507812 2.90625 -0.378906 2.78125 -0.265625 C 2.65625 -0.160156 2.503906 -0.078125 2.328125 -0.015625 C 2.148438 0.0351562 1.957031 0.0625 1.75 0.0625 Z M 1.75 0.0625 "/></g></g></g><g fill="#00fffc" fill-opacity="1"><g transform="translate(245.689016, 238.659764)"><g/></g></g><g fill="#00fffc" fill-opacity="1"><g transform="translate(249.876438, 238.659764)"><g><path d="M 0.5 0 L 0.5 -4.1875 L 3.078125 -4.1875 L 3.078125 -3.546875 L 1.21875 -3.546875 L 1.21875 -2.46875 L 2.875 -2.46875 L 2.875 -1.828125 L 1.21875 -1.828125 L 1.21875 -0.640625 L 3.078125 -0.640625 L 3.078125 0 Z M 0.5 0 "/></g></g></g><g fill="#00fffc" fill-opacity="1"><g transform="translate(254.063861, 238.659764)"><g><path d="M 1.296875 -4.1875 L 1.296875 -0.671875 L 3.125 -0.671875 L 3.125 0 L 0.578125 0 L 0.578125 -4.1875 Z M 1.296875 -4.1875 "/></g></g></g><g fill="#00fffc" fill-opacity="1"><g transform="translate(258.251283, 238.659764)"><g><path d="M 0.5 0 L 0.5 -4.1875 L 3.078125 -4.1875 L 3.078125 -3.546875 L 1.21875 -3.546875 L 1.21875 -2.46875 L 2.875 -2.46875 L 2.875 -1.828125 L 1.21875 -1.828125 L 1.21875 -0.640625 L 3.078125 -0.640625 L 3.078125 0 Z M 0.5 0 "/></g></g></g><g fill="#00fffc" fill-opacity="1"><g transform="translate(262.438705, 238.659764)"><g><path d="M 1.765625 -4.25 C 1.972656 -4.25 2.160156 -4.21875 2.328125 -4.15625 C 2.492188 -4.09375 2.632812 -4.007812 2.75 -3.90625 C 2.875 -3.800781 2.96875 -3.671875 3.03125 -3.515625 C 3.101562 -3.367188 3.144531 -3.203125 3.15625 -3.015625 L 2.421875 -3.015625 C 2.421875 -3.191406 2.359375 -3.332031 2.234375 -3.4375 C 2.117188 -3.539062 1.960938 -3.59375 1.765625 -3.59375 C 1.566406 -3.59375 1.40625 -3.535156 1.28125 -3.421875 C 1.164062 -3.304688 1.109375 -3.148438 1.109375 -2.953125 L 1.109375 -1.21875 C 1.109375 -1.03125 1.164062 -0.878906 1.28125 -0.765625 C 1.394531 -0.648438 1.554688 -0.59375 1.765625 -0.59375 C 1.960938 -0.59375 2.117188 -0.644531 2.234375 -0.75 C 2.359375 -0.851562 2.421875 -1 2.421875 -1.1875 L 3.15625 -1.1875 C 3.132812 -0.800781 3 -0.492188 2.75 -0.265625 C 2.507812 -0.046875 2.179688 0.0625 1.765625 0.0625 C 1.554688 0.0625 1.367188 0.03125 1.203125 -0.03125 C 1.035156 -0.09375 0.890625 -0.175781 0.765625 -0.28125 C 0.648438 -0.394531 0.554688 -0.53125 0.484375 -0.6875 C 0.421875 -0.851562 0.390625 -1.03125 0.390625 -1.21875 L 0.390625 -2.953125 C 0.390625 -3.148438 0.421875 -3.328125 0.484375 -3.484375 C 0.554688 -3.640625 0.648438 -3.773438 0.765625 -3.890625 C 0.890625 -4.003906 1.035156 -4.09375 1.203125 -4.15625 C 1.367188 -4.21875 1.554688 -4.25 1.765625 -4.25 Z M 1.765625 -4.25 "/></g></g></g><g fill="#00fffc" fill-opacity="1"><g transform="translate(266.626128, 238.659764)"><g><path d="M 0.234375 -4.1875 L 3.265625 -4.1875 L 3.265625 -3.515625 L 2.109375 -3.515625 L 2.109375 0 L 1.375 0 L 1.375 -3.515625 L 0.234375 -3.515625 Z M 0.234375 -4.1875 "/></g></g></g><g fill="#00fffc" fill-opacity="1"><g transform="translate(270.81355, 238.659764)"><g><path d="M 0.4375 -4.1875 L 1.8125 -4.1875 C 2.019531 -4.1875 2.207031 -4.15625 2.375 -4.09375 C 2.550781 -4.03125 2.695312 -3.941406 2.8125 -3.828125 C 2.9375 -3.722656 3.03125 -3.59375 3.09375 -3.4375 C 3.164062 -3.289062 3.203125 -3.117188 3.203125 -2.921875 C 3.203125 -2.648438 3.128906 -2.414062 2.984375 -2.21875 C 2.847656 -2.019531 2.660156 -1.875 2.421875 -1.78125 L 3.265625 0 L 2.453125 0 L 1.703125 -1.671875 L 1.15625 -1.671875 L 1.15625 0 L 0.4375 0 Z M 1.15625 -2.265625 L 1.8125 -2.265625 C 2.007812 -2.265625 2.164062 -2.320312 2.28125 -2.4375 C 2.40625 -2.550781 2.46875 -2.707031 2.46875 -2.90625 C 2.46875 -3.101562 2.40625 -3.257812 2.28125 -3.375 C 2.164062 -3.5 2.007812 -3.5625 1.8125 -3.5625 L 1.15625 -3.5625 Z M 1.15625 -2.265625 "/></g></g></g><g fill="#00fffc" fill-opacity="1"><g transform="translate(275.000972, 238.659764)"><g><path d="M 1.078125 -1.21875 C 1.078125 -1.03125 1.132812 -0.875 1.25 -0.75 C 1.375 -0.632812 1.539062 -0.578125 1.75 -0.578125 C 1.945312 -0.578125 2.101562 -0.632812 2.21875 -0.75 C 2.34375 -0.875 2.40625 -1.03125 2.40625 -1.21875 L 2.40625 -2.96875 C 2.40625 -3.164062 2.34375 -3.320312 2.21875 -3.4375 C 2.101562 -3.550781 1.945312 -3.609375 1.75 -3.609375 C 1.539062 -3.609375 1.375 -3.550781 1.25 -3.4375 C 1.132812 -3.320312 1.078125 -3.164062 1.078125 -2.96875 Z M 0.359375 -2.96875 C 0.359375 -3.15625 0.390625 -3.328125 0.453125 -3.484375 C 0.515625 -3.640625 0.601562 -3.773438 0.71875 -3.890625 C 0.84375 -4.003906 0.992188 -4.09375 1.171875 -4.15625 C 1.347656 -4.21875 1.539062 -4.25 1.75 -4.25 C 1.957031 -4.25 2.144531 -4.21875 2.3125 -4.15625 C 2.488281 -4.09375 2.632812 -4.003906 2.75 -3.890625 C 2.875 -3.773438 2.96875 -3.640625 3.03125 -3.484375 C 3.101562 -3.328125 3.140625 -3.15625 3.140625 -2.96875 L 3.140625 -1.21875 C 3.140625 -1.03125 3.101562 -0.859375 3.03125 -0.703125 C 2.96875 -0.546875 2.875 -0.410156 2.75 -0.296875 C 2.625 -0.179688 2.476562 -0.09375 2.3125 -0.03125 C 2.144531 0.03125 1.957031 0.0625 1.75 0.0625 C 1.539062 0.0625 1.347656 0.03125 1.171875 -0.03125 C 0.992188 -0.09375 0.84375 -0.175781 0.71875 -0.28125 C 0.601562 -0.394531 0.515625 -0.53125 0.453125 -0.6875 C 0.390625 -0.851562 0.359375 -1.03125 0.359375 -1.21875 Z M 1.953125 -4.6875 L 1.28125 -4.6875 L 1.890625 -5.53125 L 2.671875 -5.53125 Z M 1.953125 -4.6875 "/></g></g></g><g fill="#00fffc" fill-opacity="1"><g transform="translate(279.188395, 238.659764)"><g><path d="M 1.296875 -4.1875 L 2.296875 -1.40625 C 2.328125 -1.34375 2.347656 -1.269531 2.359375 -1.1875 C 2.378906 -1.101562 2.394531 -1.023438 2.40625 -0.953125 C 2.425781 -0.859375 2.441406 -0.769531 2.453125 -0.6875 L 2.515625 -0.6875 C 2.515625 -0.6875 2.507812 -0.710938 2.5 -0.765625 C 2.5 -0.828125 2.492188 -0.898438 2.484375 -0.984375 C 2.472656 -1.078125 2.460938 -1.175781 2.453125 -1.28125 C 2.441406 -1.394531 2.4375 -1.503906 2.4375 -1.609375 L 2.4375 -4.1875 L 3.09375 -4.1875 L 3.09375 0 L 2.1875 0 L 1.203125 -2.796875 C 1.171875 -2.867188 1.144531 -2.945312 1.125 -3.03125 C 1.113281 -3.113281 1.101562 -3.191406 1.09375 -3.265625 C 1.070312 -3.347656 1.054688 -3.425781 1.046875 -3.5 L 0.96875 -3.5 C 0.988281 -3.40625 1.003906 -3.304688 1.015625 -3.203125 C 1.015625 -3.117188 1.019531 -3.019531 1.03125 -2.90625 C 1.039062 -2.800781 1.046875 -2.695312 1.046875 -2.59375 L 1.046875 0 L 0.40625 0 L 0.40625 -4.1875 Z M 1.296875 -4.1875 "/></g></g></g><g fill="#00fffc" fill-opacity="1"><g transform="translate(283.375817, 238.659764)"><g><path d="M 0.484375 0 L 0.484375 -0.640625 L 1.375 -0.640625 L 1.375 -3.546875 L 0.484375 -3.546875 L 0.484375 -4.1875 L 3 -4.1875 L 3 -3.546875 L 2.109375 -3.546875 L 2.109375 -0.640625 L 3 -0.640625 L 3 0 Z M 0.484375 0 "/></g></g></g><g fill="#00fffc" fill-opacity="1"><g transform="translate(287.563239, 238.659764)"><g><path d="M 1.765625 -4.25 C 1.972656 -4.25 2.160156 -4.21875 2.328125 -4.15625 C 2.492188 -4.09375 2.632812 -4.007812 2.75 -3.90625 C 2.875 -3.800781 2.96875 -3.671875 3.03125 -3.515625 C 3.101562 -3.367188 3.144531 -3.203125 3.15625 -3.015625 L 2.421875 -3.015625 C 2.421875 -3.191406 2.359375 -3.332031 2.234375 -3.4375 C 2.117188 -3.539062 1.960938 -3.59375 1.765625 -3.59375 C 1.566406 -3.59375 1.40625 -3.535156 1.28125 -3.421875 C 1.164062 -3.304688 1.109375 -3.148438 1.109375 -2.953125 L 1.109375 -1.21875 C 1.109375 -1.03125 1.164062 -0.878906 1.28125 -0.765625 C 1.394531 -0.648438 1.554688 -0.59375 1.765625 -0.59375 C 1.960938 -0.59375 2.117188 -0.644531 2.234375 -0.75 C 2.359375 -0.851562 2.421875 -1 2.421875 -1.1875 L 3.15625 -1.1875 C 3.132812 -0.800781 3 -0.492188 2.75 -0.265625 C 2.507812 -0.046875 2.179688 0.0625 1.765625 0.0625 C 1.554688 0.0625 1.367188 0.03125 1.203125 -0.03125 C 1.035156 -0.09375 0.890625 -0.175781 0.765625 -0.28125 C 0.648438 -0.394531 0.554688 -0.53125 0.484375 -0.6875 C 0.421875 -0.851562 0.390625 -1.03125 0.390625 -1.21875 L 0.390625 -2.953125 C 0.390625 -3.148438 0.421875 -3.328125 0.484375 -3.484375 C 0.554688 -3.640625 0.648438 -3.773438 0.765625 -3.890625 C 0.890625 -4.003906 1.035156 -4.09375 1.203125 -4.15625 C 1.367188 -4.21875 1.554688 -4.25 1.765625 -4.25 Z M 1.765625 -4.25 "/></g></g></g><g fill="#00fffc" fill-opacity="1"><g transform="translate(291.750662, 238.659764)"><g><path d="M 1.078125 -1.21875 C 1.078125 -1.03125 1.132812 -0.875 1.25 -0.75 C 1.375 -0.632812 1.539062 -0.578125 1.75 -0.578125 C 1.945312 -0.578125 2.101562 -0.632812 2.21875 -0.75 C 2.34375 -0.875 2.40625 -1.03125 2.40625 -1.21875 L 2.40625 -2.96875 C 2.40625 -3.164062 2.34375 -3.320312 2.21875 -3.4375 C 2.101562 -3.550781 1.945312 -3.609375 1.75 -3.609375 C 1.539062 -3.609375 1.375 -3.550781 1.25 -3.4375 C 1.132812 -3.320312 1.078125 -3.164062 1.078125 -2.96875 Z M 0.359375 -2.96875 C 0.359375 -3.15625 0.390625 -3.328125 0.453125 -3.484375 C 0.515625 -3.640625 0.601562 -3.773438 0.71875 -3.890625 C 0.84375 -4.003906 0.992188 -4.09375 1.171875 -4.15625 C 1.347656 -4.21875 1.539062 -4.25 1.75 -4.25 C 1.957031 -4.25 2.144531 -4.21875 2.3125 -4.15625 C 2.488281 -4.09375 2.632812 -4.003906 2.75 -3.890625 C 2.875 -3.773438 2.96875 -3.640625 3.03125 -3.484375 C 3.101562 -3.328125 3.140625 -3.15625 3.140625 -2.96875 L 3.140625 -1.21875 C 3.140625 -1.03125 3.101562 -0.859375 3.03125 -0.703125 C 2.96875 -0.546875 2.875 -0.410156 2.75 -0.296875 C 2.625 -0.179688 2.476562 -0.09375 2.3125 -0.03125 C 2.144531 0.03125 1.957031 0.0625 1.75 0.0625 C 1.539062 0.0625 1.347656 0.03125 1.171875 -0.03125 C 0.992188 -0.09375 0.84375 -0.175781 0.71875 -0.28125 C 0.601562 -0.394531 0.515625 -0.53125 0.453125 -0.6875 C 0.390625 -0.851562 0.359375 -1.03125 0.359375 -1.21875 Z M 0.359375 -2.96875 "/></g></g></g><g fill="#00fffc" fill-opacity="1"><g transform="translate(295.938084, 238.659764)"><g><path d="M 1.75 0.0625 C 1.539062 0.0625 1.347656 0.0351562 1.171875 -0.015625 C 1.003906 -0.078125 0.859375 -0.15625 0.734375 -0.25 C 0.609375 -0.351562 0.507812 -0.476562 0.4375 -0.625 C 0.363281 -0.769531 0.320312 -0.929688 0.3125 -1.109375 L 1.0625 -1.109375 C 1.070312 -0.941406 1.140625 -0.8125 1.265625 -0.71875 C 1.390625 -0.625 1.554688 -0.578125 1.765625 -0.578125 C 1.972656 -0.578125 2.132812 -0.625 2.25 -0.71875 C 2.375 -0.8125 2.4375 -0.941406 2.4375 -1.109375 C 2.4375 -1.253906 2.390625 -1.378906 2.296875 -1.484375 C 2.210938 -1.585938 2.085938 -1.664062 1.921875 -1.71875 L 1.484375 -1.84375 C 0.765625 -2.039062 0.40625 -2.457031 0.40625 -3.09375 C 0.40625 -3.257812 0.4375 -3.414062 0.5 -3.5625 C 0.5625 -3.707031 0.648438 -3.832031 0.765625 -3.9375 C 0.878906 -4.039062 1.019531 -4.117188 1.1875 -4.171875 C 1.351562 -4.222656 1.539062 -4.25 1.75 -4.25 C 2.144531 -4.25 2.460938 -4.144531 2.703125 -3.9375 C 2.953125 -3.738281 3.085938 -3.460938 3.109375 -3.109375 L 2.359375 -3.109375 C 2.359375 -3.265625 2.296875 -3.382812 2.171875 -3.46875 C 2.054688 -3.5625 1.910156 -3.609375 1.734375 -3.609375 C 1.546875 -3.609375 1.394531 -3.5625 1.28125 -3.46875 C 1.175781 -3.382812 1.125 -3.269531 1.125 -3.125 C 1.125 -2.84375 1.296875 -2.65625 1.640625 -2.5625 L 2.09375 -2.421875 C 2.445312 -2.328125 2.710938 -2.171875 2.890625 -1.953125 C 3.078125 -1.734375 3.171875 -1.460938 3.171875 -1.140625 C 3.171875 -0.960938 3.132812 -0.800781 3.0625 -0.65625 C 3 -0.507812 2.90625 -0.378906 2.78125 -0.265625 C 2.65625 -0.160156 2.503906 -0.078125 2.328125 -0.015625 C 2.148438 0.0351562 1.957031 0.0625 1.75 0.0625 Z M 1.75 0.0625 "/></g></g></g><g fill="#ffffff" fill-opacity="1"><g transform="translate(126.454669, 228.608555)"><g><path d="M 3.058594 -12.03125 L 15.089844 -12.03125 L 15.089844 -14.273438 L 3.058594 -14.273438 Z M 4.488281 0 L 15.089844 0 L 15.089844 -2.242188 L 4.488281 -2.242188 C 3.710938 -2.242188 3.058594 -2.875 3.058594 -3.671875 L 3.058594 -12.03125 L 0.816406 -12.03125 L 0.816406 -3.671875 C 0.816406 -1.632812 2.445312 0 4.488281 0 Z M 4.464844 -6.015625 L 13.664062 -6.015625 L 13.664062 -8.257812 L 4.464844 -8.257812 Z M 4.464844 -6.015625 "/></g></g></g><g fill="#ffffff" fill-opacity="1"><g transform="translate(141.747577, 228.608555)"><g><path d="M 12.847656 0 L 12.847656 -2.242188 C 11.316406 -2.242188 10.011719 -5.34375 8.972656 -7.585938 C 7.464844 -11.09375 5.953125 -14.273438 3.058594 -14.273438 L 3.058594 -12.03125 C 4.589844 -12.03125 5.894531 -8.992188 6.914062 -6.730469 C 8.402344 -3.386719 9.890625 0 12.847656 0 Z M 12.847656 -2.242188 L 15.089844 -2.242188 L 15.089844 -14.273438 L 12.847656 -14.273438 Z M 0.816406 0 L 3.058594 0 L 3.058594 -12.03125 L 0.816406 -12.03125 Z M 0.816406 0 "/></g></g></g><g fill="#ffffff" fill-opacity="1"><g transform="translate(157.040485, 228.608555)"><g/></g></g><g fill="#ffffff" fill-opacity="1"><g transform="translate(164.58493, 228.608555)"><g><path d="M 4.488281 0 L 12.847656 0 L 12.847656 -2.242188 L 4.488281 -2.242188 C 3.691406 -2.242188 3.058594 -2.875 3.058594 -3.671875 L 3.058594 -14.273438 L 0.816406 -14.273438 L 0.816406 -3.671875 C 0.816406 -1.609375 2.425781 0 4.488281 0 Z M 12.847656 -2.242188 L 15.089844 -2.242188 L 15.089844 -14.273438 L 12.847656 -14.273438 Z M 12.847656 -2.242188 "/></g></g></g><g fill="#ffffff" fill-opacity="1"><g transform="translate(179.877838, 228.608555)"><g><path d="M 12.847656 0 L 12.847656 -2.242188 C 11.316406 -2.242188 10.011719 -5.34375 8.972656 -7.585938 C 7.464844 -11.09375 5.953125 -14.273438 3.058594 -14.273438 L 3.058594 -12.03125 C 4.589844 -12.03125 5.894531 -8.992188 6.914062 -6.730469 C 8.402344 -3.386719 9.890625 0 12.847656 0 Z M 12.847656 -2.242188 L 15.089844 -2.242188 L 15.089844 -14.273438 L 12.847656 -14.273438 Z M 0.816406 0 L 3.058594 0 L 3.058594 -12.03125 L 0.816406 -12.03125 Z M 0.816406 0 "/></g></g></g><g fill="#ffffff" fill-opacity="1"><g transform="translate(195.170749, 228.608555)"><g/></g></g><g fill="#ffffff" fill-opacity="1"><g transform="translate(202.715197, 228.608555)"><g><path d="M 12.847656 -9.992188 L 15.089844 -9.992188 C 15.089844 -12.460938 13.582031 -14.273438 11.417969 -14.273438 L 3.058594 -14.273438 L 3.058594 -12.03125 L 11.214844 -12.03125 C 12.214844 -12.03125 12.847656 -11.09375 12.847656 -9.992188 Z M 12.847656 -2.242188 L 15.089844 -2.242188 L 15.089844 -4.589844 C 15.089844 -6.75 13.582031 -8.257812 11.417969 -8.257812 L 4.488281 -8.257812 C 3.710938 -8.257812 3.058594 -8.890625 3.058594 -9.6875 L 3.058594 -12.03125 L 0.816406 -12.03125 L 0.816406 -9.6875 C 0.816406 -7.546875 2.34375 -6.015625 4.488281 -6.015625 L 11.417969 -6.015625 C 12.214844 -6.015625 12.847656 -5.382812 12.847656 -4.589844 Z M 4.488281 0 L 12.847656 0 L 12.847656 -2.242188 L 4.691406 -2.242188 C 3.710938 -2.242188 3.058594 -3.179688 3.058594 -4.28125 L 0.816406 -4.28125 C 0.816406 -1.835938 2.34375 0 4.488281 0 Z M 4.488281 0 "/></g></g></g><g fill="#ffffff" fill-opacity="1"><g transform="translate(218.008108, 228.608555)"><g><path d="M 12.847656 -2.242188 L 15.089844 -2.242188 L 15.089844 -10.605469 C 15.089844 -12.765625 13.5625 -14.273438 11.417969 -14.273438 L 3.058594 -14.273438 L 3.058594 -12.03125 L 11.417969 -12.03125 C 12.195312 -12.03125 12.847656 -11.398438 12.847656 -10.605469 Z M 4.488281 0 L 12.847656 0 L 12.847656 -2.242188 L 4.488281 -2.242188 C 3.691406 -2.242188 3.058594 -2.875 3.058594 -3.671875 L 3.058594 -12.03125 L 0.816406 -12.03125 L 0.816406 -3.671875 C 0.816406 -1.507812 2.324219 0 4.488281 0 Z M 4.488281 0 "/></g></g></g><g fill="#ffffff" fill-opacity="1"><g transform="translate(233.301019, 228.608555)"><g><path d="M 4.488281 0 L 13.867188 0 L 13.867188 -2.242188 L 4.488281 -2.242188 C 3.691406 -2.242188 3.058594 -2.875 3.058594 -3.671875 L 3.058594 -14.273438 L 0.816406 -14.273438 L 0.816406 -3.671875 C 0.816406 -1.609375 2.425781 0 4.488281 0 Z M 4.488281 0 "/></g></g></g><g fill="#ffffff" fill-opacity="1"><g transform="translate(247.370488, 228.608555)"><g><path d="M 12.847656 -2.242188 L 15.089844 -2.242188 L 15.089844 -10.605469 C 15.089844 -12.765625 13.5625 -14.273438 11.417969 -14.273438 L 3.058594 -14.273438 L 3.058594 -12.03125 L 11.417969 -12.03125 C 12.195312 -12.03125 12.847656 -11.398438 12.847656 -10.605469 Z M 4.488281 0 L 12.847656 0 L 12.847656 -2.242188 L 4.488281 -2.242188 C 3.691406 -2.242188 3.058594 -2.875 3.058594 -3.671875 L 3.058594 -12.03125 L 0.816406 -12.03125 L 0.816406 -3.671875 C 0.816406 -1.507812 2.324219 0 4.488281 0 Z M 4.488281 0 "/></g></g></g><g fill="#ffffff" fill-opacity="1"><g transform="translate(262.663398, 228.608555)"><g/></g></g><g fill="#ffffff" fill-opacity="1"><g transform="translate(270.207847, 228.608555)"><g><path d="M 4.488281 0 L 13.867188 0 L 13.867188 -2.242188 L 4.488281 -2.242188 C 3.691406 -2.242188 3.058594 -2.875 3.058594 -3.671875 L 3.058594 -14.273438 L 0.816406 -14.273438 L 0.816406 -3.671875 C 0.816406 -1.609375 2.425781 0 4.488281 0 Z M 4.488281 0 "/></g></g></g><g fill="#ffffff" fill-opacity="1"><g transform="translate(284.277315, 228.608555)"><g><path d="M 4.488281 0 L 12.847656 0 L 12.847656 -2.242188 L 4.488281 -2.242188 C 3.691406 -2.242188 3.058594 -2.875 3.058594 -3.671875 L 3.058594 -14.273438 L 0.816406 -14.273438 L 0.816406 -3.671875 C 0.816406 -1.609375 2.425781 0 4.488281 0 Z M 12.847656 -2.242188 L 15.089844 -2.242188 L 15.089844 -14.273438 L 12.847656 -14.273438 Z M 12.847656 -2.242188 "/></g></g></g><g fill="#ffffff" fill-opacity="1"><g transform="translate(299.570226, 228.608555)"><g><path d="M 4.464844 0 L 12.847656 0 L 12.847656 -2.242188 L 4.464844 -2.242188 C 3.691406 -2.242188 3.039062 -2.875 3.039062 -3.671875 L 3.039062 -10.605469 C 3.039062 -11.398438 3.691406 -12.03125 4.464844 -12.03125 L 13.664062 -12.03125 L 13.664062 -14.273438 L 4.464844 -14.273438 C 2.425781 -14.273438 0.816406 -12.664062 0.816406 -10.605469 L 0.816406 -3.671875 C 0.816406 -1.632812 2.425781 0 4.464844 0 Z M 12.867188 -2.242188 L 15.089844 -2.242188 L 15.089844 -8.257812 L 6.503906 -8.257812 L 6.503906 -6.015625 L 12.867188 -6.015625 Z M 12.867188 -2.242188 "/></g></g></g><g fill="#ffffff" fill-opacity="1"><g transform="translate(314.863137, 228.608555)"><g><path d="M 12.847656 0 L 15.089844 0 L 15.089844 -10.605469 C 15.089844 -12.664062 13.460938 -14.273438 11.398438 -14.273438 L 3.039062 -14.273438 L 3.039062 -12.03125 L 11.398438 -12.03125 C 12.195312 -12.03125 12.847656 -11.398438 12.847656 -10.605469 Z M 0.816406 0 L 3.039062 0 L 3.039062 -4.589844 L 11.417969 -4.589844 L 11.417969 -6.832031 L 3.039062 -6.832031 L 3.039062 -12.03125 L 0.816406 -12.03125 Z M 0.816406 0 "/></g></g></g><g fill="#ffffff" fill-opacity="1"><g transform="translate(330.156036, 228.608555)"><g><path d="M 12.847656 0 L 15.089844 0 L 15.089844 -2.855469 C 15.089844 -3.957031 14.664062 -4.957031 13.988281 -5.710938 C 14.664062 -6.464844 15.089844 -7.464844 15.089844 -8.566406 L 15.089844 -10.605469 C 15.089844 -12.664062 13.480469 -14.273438 11.417969 -14.273438 L 3.058594 -14.273438 L 3.058594 -12.03125 L 11.417969 -12.03125 C 12.214844 -12.03125 12.847656 -11.398438 12.847656 -10.605469 L 12.847656 -8.566406 C 12.847656 -7.769531 12.214844 -6.832031 11.417969 -6.832031 L 4.488281 -6.832031 L 4.488281 -4.589844 L 11.417969 -4.589844 C 12.214844 -4.589844 12.847656 -3.648438 12.847656 -2.855469 Z M 0.816406 0 L 3.058594 0 L 3.058594 -12.03125 L 0.816406 -12.03125 Z M 0.816406 0 "/></g></g></g><g fill="#2a245e" fill-opacity="1"><g transform="translate(95.051638, 183.47565)"><g><path d="M 1.886719 0 L 2.5 0 L 2.5 -2.917969 C 2.5 -3.488281 2.054688 -3.929688 1.488281 -3.929688 L 0.222656 -3.929688 L 0.222656 -3.3125 L 1.488281 -3.3125 C 1.707031 -3.3125 1.886719 -3.140625 1.886719 -2.917969 Z M 2.5 -3.3125 L 4.15625 -3.3125 L 4.15625 -3.929688 L 2.5 -3.929688 Z M 2.5 -3.3125 "/></g></g></g><g fill="#2a245e" fill-opacity="1"><g transform="translate(99.262804, 183.47565)"><g><path d="M 3.539062 -2.75 L 4.15625 -2.75 C 4.15625 -3.429688 3.738281 -3.929688 3.144531 -3.929688 L 0.84375 -3.929688 L 0.84375 -3.3125 L 3.089844 -3.3125 C 3.363281 -3.3125 3.539062 -3.054688 3.539062 -2.75 Z M 3.539062 -0.617188 L 4.15625 -0.617188 L 4.15625 -1.261719 C 4.15625 -1.859375 3.738281 -2.273438 3.144531 -2.273438 L 1.234375 -2.273438 C 1.023438 -2.273438 0.84375 -2.449219 0.84375 -2.667969 L 0.84375 -3.3125 L 0.222656 -3.3125 L 0.222656 -2.667969 C 0.222656 -2.078125 0.644531 -1.65625 1.234375 -1.65625 L 3.144531 -1.65625 C 3.363281 -1.65625 3.539062 -1.480469 3.539062 -1.261719 Z M 1.234375 0 L 3.539062 0 L 3.539062 -0.617188 L 1.292969 -0.617188 C 1.023438 -0.617188 0.84375 -0.875 0.84375 -1.179688 L 0.222656 -1.179688 C 0.222656 -0.503906 0.644531 0 1.234375 0 Z M 1.234375 0 "/></g></g></g><g fill="#2a245e" fill-opacity="1"><g transform="translate(103.473969, 183.47565)"><g><path d="M 1.234375 0 L 3.816406 0 L 3.816406 -0.617188 L 1.234375 -0.617188 C 1.015625 -0.617188 0.84375 -0.792969 0.84375 -1.011719 L 0.84375 -3.929688 L 0.222656 -3.929688 L 0.222656 -1.011719 C 0.222656 -0.445312 0.667969 0 1.234375 0 Z M 1.234375 0 "/></g></g></g></svg>